<?xml version="1.0" standalone="no"?>
<!DOCTYPE svg PUBLIC "-//W3C//DTD SVG 20010904//EN"
 "http://www.w3.org/TR/2001/REC-SVG-20010904/DTD/svg10.dtd">
<svg version="1.0" xmlns="http://www.w3.org/2000/svg"
 width="600.000000pt" height="600.000000pt" viewBox="0 0 600.000000 600.000000"
 preserveAspectRatio="xMidYMid meet">
<metadata>
Created by potrace 1.11, written by Peter Selinger 2001-2013
</metadata>
<g transform="translate(0.000000,600.000000) scale(0.100000,-0.100000)"
fill="#000000" stroke="none">
<path d="M0 3000 l0 -3000 3000 0 3000 0 0 3000 0 3000 -3000 0 -3000 0 0
-3000z m2462 1102 c240 -334 458 -635 483 -670 l46 -63 482 670 482 670 703 1
702 0 0 -480 0 -480 -180 0 -180 0 0 -745 0 -745 180 0 180 0 0 -480 0 -480
-892 2 -893 3 -3 478 -2 477 195 0 195 0 0 481 c0 264 -3 478 -7 475 -5 -2
-222 -299 -483 -660 -261 -360 -477 -655 -480 -655 -3 0 -219 295 -480 655
-261 361 -478 658 -482 660 -5 3 -8 -211 -8 -475 l0 -481 195 0 195 0 -2 -477
-3 -478 -892 -3 -893 -2 0 480 0 480 180 0 180 0 0 745 0 745 -180 0 -180 0 0
480 0 480 703 0 702 0 437 -608z"/>
</g>
</svg>
