<?xml version="1.0" encoding="utf-8"?>
<!-- Generator: Adobe Illustrator 22.1.0, SVG Export Plug-In . SVG Version: 6.00 Build 0)  -->
<svg version="1.1" id="Layer_1" xmlns="http://www.w3.org/2000/svg" xmlns:xlink="http://www.w3.org/1999/xlink" x="0px" y="0px"
	 viewBox="0 0 151.4 160.9" style="enable-background:new 0 0 151.4 160.9;" xml:space="preserve">
<style type="text/css">
	.st0{fill:#002D62;}
	.st1{fill:#FFCF01;}
	.st2{fill:#FFFFFF;}
</style>
<g>
	<rect class="st0" width="151.4" height="160.9"/>
	<path class="st1" d="M75.6,85.5l-22-30.2v22h8.8v21.7H21.7V77.2H30V43.4h-8.2V21.7h32l22,30.5l22.1-30.5h32v21.7h-8.2v33.8h8.2
		v21.7H89V77.2h8.8v-22L75.6,85.5z"/>
	<path class="st2" d="M108,138.8V138c1-0.1,1.7-0.1,1.7-0.9c0-0.3-0.1-0.6-0.2-0.9l-0.4-1.5H104l-0.4,1.3c-0.1,0.3-0.2,0.6-0.2,0.9
		c0,1,1.1,1.1,2,1.1v0.8h-6V138c1.5-0.1,2-0.4,2.6-1.9l3.9-10.8l-0.2-0.3c1.7-0.6,2.2-0.8,2.9-1.3c0.3,1,0.3,1.1,0.7,2.1l3.2,9.9
		c0.6,1.7,0.8,2.2,2.4,2.3v0.8H108z M106.7,127.1l-2.1,6h4.2L106.7,127.1z M61.7,135.5c-0.6,1-2.2,3.6-6.2,3.6
		c-4.4,0-7.2-3.2-7.2-7.5c0-3.9,2.4-7.8,7.3-7.8c2.6,0,3.9,1.1,4.8,1.7l1-0.9l0.1,4.4l-0.6,0.1c-0.3-0.8-0.6-1.5-1.6-2.5
		c-0.4-0.5-1.5-1.4-3-1.4c-2.6,0-4.7,2.1-4.7,5.9c0,3.2,1.7,6.2,5.1,6.2c2.5,0,3.5-1.4,4.2-2.5L61.7,135.5z M62.8,138.8V138
		c1.6-0.1,1.7-0.5,1.7-1.9c0-0.5,0-1,0-1.5v-6.1c0-0.9,0-1.9-0.1-2.3c-0.1-0.9-0.5-1-1.6-1.1v-0.8H69v0.8c-1.2,0.1-1.7,0.2-1.8,1
		c-0.1,0.5-0.1,1.5-0.1,2.4v2c1.3,0.1,2.1,0.1,3.3,0.1c1.2,0,2.2,0,3.4-0.1V128c0-2.7,0-2.8-2-2.9v-0.8h6.3v0.8
		c-1.7,0.2-1.7,0.2-1.7,3v6.1c0,0.6,0,2.4,0.1,2.8c0.1,0.8,0.5,0.9,1.6,1v0.8h-6.3V138c1.5-0.2,1.8-0.2,2-1.2c0-0.4,0-1,0-2v-2.7
		c-1.2,0-2.1-0.1-3.3-0.1c-1.3,0-2.2,0-3.5,0.1v2.7c0,3,0.1,3,1.9,3.2v0.8H62.8z M79.3,138.8V138c1.4-0.2,1.7-0.3,1.7-1.9v-1.8v-5.9
		c0-3,0-3.1-1.7-3.3v-0.8h6v0.8c-1.7,0.2-1.7,0.2-1.7,3.3v5.9c0,0.5,0,2.1,0.1,2.6c0.1,0.9,0.5,1.1,1.6,1.2v0.8H79.3z M42.1,138.8
		V138c1.4-0.2,1.7-0.3,1.7-1.9v-1.8v-5.9c0-3,0-3.1-1.7-3.3v-0.8h6v0.8c-1.7,0.2-1.7,0.2-1.7,3.3v5.9c0,0.5,0,2.1,0.1,2.6
		c0.1,0.9,0.5,1.1,1.6,1.2v0.8H42.1z M34.3,138.8V138c1.8-0.1,1.8-0.2,1.8-2.9v-7.3L31.1,139h-1.3l-4.7-11.3l-0.1,8.5
		c0,1.4,0.2,1.7,1.7,1.8v0.8h-5V138c1.2-0.1,1.6-0.2,1.7-1.2c0-0.4,0.1-1.6,0.1-2.4l0.2-6.1c0-0.5,0-1.2,0-1.7
		c0-1.4-0.3-1.5-1.6-1.6v-0.8h4.6l4.5,11l5-11h4.4v0.9c-1.7,0.1-1.7,0.3-1.7,2.5v6c0,1,0,2.2,0.1,3c0.1,1.1,0.5,1.3,1.6,1.4v0.8
		H34.3z M114.4,138.8V138c1.2-0.1,1.6-0.1,1.8-0.9c0.2-1,0.3-9.6,0.3-11.1c-0.8-0.7-1.1-0.9-2.1-1v-0.8h4.4c1.2,1.7,1.5,2.1,3.6,4.8
		l4,5v-6.5c0-2.3-0.1-2.4-2.4-2.5v-0.8h5.7v0.8c-1.6,0-1.7,0.3-1.7,2.7l-0.2,11.2h-0.9l-1.3-1.6c-0.7-0.8-1.3-1.6-2-2.4l-5.7-7.1
		v7.5c0,2.3,0.2,2.4,2.4,2.7v0.8H114.4z M100.1,132.4v0.8c-1.3,0.1-1.3,0.5-1.3,3.2v1.1c-1.1,0.7-2.7,1.7-5.6,1.7
		c-5,0-7.4-3.8-7.4-7.6c0-4.6,3.1-7.7,7.1-7.7c2.5,0,3.9,0.9,5.1,1.6l0.8-0.9l0.1,4.5l-0.6,0.1c-0.3-0.9-0.7-1.9-1.8-2.9
		c-0.5-0.5-1.4-1.1-2.9-1.1c-2.5,0-4.6,2.1-4.6,6.3c0,3.3,1.6,6.2,4.5,6.2c1.6,0,2.4-1.1,2.5-1.2c0.3-0.4,0.3-0.7,0.3-1.4
		c-0.1-1.8-0.3-1.9-1.9-2.1v-0.8H100.1z"/>
	<path class="st2" d="M122,114.9c0,3.3-2.3,5.1-4.8,5.1c-2.8,0-5-2-5-5.1c0-2.6,1.8-5,4.8-5C120,109.9,122,112,122,114.9z
		 M117.2,119.1c0.5,0,1.3-0.3,1.9-1.2c0.7-1,0.8-2,0.8-3.2c0-1.2-0.4-2.3-1.1-3.1c-0.3-0.3-0.9-0.8-1.7-0.8c-0.8,0-1.4,0.5-1.7,0.8
		c-0.7,0.8-1,1.8-1,3.1c0,1.2,0.2,2.2,0.9,3.2C115.9,118.8,116.7,119.1,117.2,119.1z M122.4,119.2v0.5h4v-0.5
		c-1-0.1-1.1-0.2-1.1-1.2l0-2.7h1.1c1.1,0,1.6,0.1,1.7,1.2h0.5v-3.2h-0.5c-0.1,1-0.3,1.1-1.5,1.1h-1.3l0-3.3c0.3,0,0.5-0.1,1.1-0.1
		c1.9,0,2.5,0,2.7,1.5h0.5l-0.1-2.3h-7v0.5c0.7,0.1,1,0.1,1.1,0.6c0.1,0.3,0.1,1.4,0.1,1.7l0,3.4c0,0.3,0,1.4,0,1.6
		C123.6,119,123.4,119.1,122.4,119.2z M44,119.6v-0.5c0.9-0.1,1.1-0.2,1.1-1.2v-1.2v-3.9c0-2,0-2.1-1.1-2.2v-0.5h4v0.5
		c-1.1,0.1-1.1,0.2-1.1,2.2v3.9c0,0.3,0,1.4,0,1.7c0.1,0.6,0.3,0.7,1.1,0.8v0.5H44z M83.7,119.6v-0.5c0.9-0.1,1.1-0.2,1.1-1.2v-1.2
		v-3.9c0-2,0-2.1-1.1-2.2v-0.5h4v0.5c-1.1,0.1-1.1,0.2-1.1,2.2v3.9c0,0.3,0,1.4,0,1.7c0.1,0.6,0.3,0.7,1.1,0.8v0.5H83.7z
		 M32.8,119.6v-0.5c0.8,0,1.1-0.1,1.2-0.6c0.1-0.6,0.2-6.3,0.2-7.3c-0.5-0.5-0.7-0.6-1.4-0.6v-0.5h2.9c0.8,1.1,1,1.4,2.4,3.2
		l2.7,3.3v-4.3c0-1.5-0.1-1.6-1.6-1.7v-0.5h3.8v0.5c-1,0-1.1,0.2-1.2,1.8l-0.1,7.4h-0.6l-0.9-1.1c-0.4-0.5-0.9-1.1-1.3-1.6l-3.8-4.7
		v5c0,1.5,0.1,1.6,1.6,1.8v0.5H32.8z M76.3,116.7l0.5-0.1c0.5,1.6,1.4,2.4,2.9,2.4c1,0,1.9-0.4,1.9-1.5c0-1.1-1-1.5-1.5-1.7
		c-0.4-0.1-0.8-0.3-1.2-0.4c-0.8-0.3-2.3-0.9-2.3-2.8c0-1.8,1.4-2.8,3.1-2.8c0.6,0,1.4,0.1,2.2,0.7l0.6-0.4l0.3,2.9l-0.5,0.1
		c-0.2-0.6-0.3-0.9-0.7-1.4c-0.5-0.6-1.1-0.9-1.9-0.9c-1,0-1.6,0.5-1.6,1.2c0,1.1,1.1,1.5,2.2,1.9c0.5,0.2,1,0.3,1.4,0.6
		c0.8,0.4,1.4,1.3,1.4,2.4c0,1.7-1.4,3-3.4,3c-1.3,0-2.1-0.5-2.5-0.8l-0.8-0.6L76.3,116.7z M91.1,119.6v-0.4c0.9,0,1.1-0.3,1.1-1.1
		v-7.1H91c-1.1,0-1.8,0-1.9,1.7h-0.5l0.1-2.7h8.7l0.1,2.7H97c-0.1-1.7-0.8-1.7-1.9-1.7h-1.2v7.1c0,0.8,0.2,1.1,1.1,1.1l0,0.4H91.1z
		 M25.9,110.1v0.5c-1.3,0.1-1.3,0.1-1.3,2.2v2.3c0,1.2,0,2.2,0.6,3.1c0.5,0.7,1.3,0.8,1.7,0.8c1.4,0,2.1-0.7,2.5-1.8
		c0.3-0.9,0.3-2.6,0.3-3.7c0-0.4,0-1.5,0-1.8c-0.1-0.9-0.5-0.9-1.4-1v-0.5h3.7v0.5c-0.9,0-1.1,0.2-1.1,1.1c0,0.2-0.1,2.9-0.1,3.3
		c0,0.7-0.1,1.5-0.2,2.1c-0.7,2.6-3.2,2.7-3.8,2.7c-0.5,0-1.6-0.1-2.5-0.7c-1.4-1-1.4-2.4-1.4-4v-2.2c0-1,0-1.5,0-1.7
		c-0.1-0.6-0.4-0.7-1.1-0.8v-0.5H25.9z M58.4,110.1v0.5c-0.9,0.1-1,0.4-1.8,2.3l-2.9,7h-0.5l-2.6-7.1c-0.7-1.8-0.7-2-1.7-2.2v-0.5
		h4.5v0.5c-0.8,0-1.3,0.1-1.3,0.6c0,0.3,0.1,0.5,0.3,1.3l1.7,4.9l2-5c0.1-0.3,0.3-0.8,0.3-1c0-0.7-0.7-0.7-1.3-0.7v-0.5H58.4z
		 M101,119.6v-0.5c0.7-0.1,1-0.1,1.2-0.3c0.2-0.2,0.2-0.5,0.2-1.5v-1.7l-2.6-4c-0.7-1-0.7-1.1-1.6-1.1V110h5v0.5
		c-1,0-1.5,0.1-1.5,0.5c0,0.3,0.2,0.6,0.4,1l1.5,2.4l1.4-2.4c0.2-0.5,0.4-0.8,0.4-1c0-0.5-0.4-0.5-1.1-0.5V110h3.7v0.5
		c-1,0-1.2,0.3-2.3,2.1l-1.5,2.5v2c0,1.7,0,1.9,1.4,2v0.5H101z M66.2,119.6c0-0.7,0.1-1.8,0.2-2.5h-0.5c-0.3,1.7-1.3,1.6-2.7,1.6
		c-1.3,0-1.5-0.3-1.5-1v-2.7h1c1.2,0,1.5,0.1,1.5,1.2h0.5v-3.2h-0.5c-0.1,0.9-0.3,1.1-1.5,1.1h-1v-3.4h1.2c1.6,0,2.2,0.1,2.4,1.4
		h0.4l-0.1-2.3h-6.8v0.5c0.7,0.1,1,0.1,1.1,0.6c0.1,0.3,0.1,1.4,0.1,1.7v3.4c0,0.3,0,1.4,0,1.6c0,1-0.1,1.1-1.1,1.2v0.5H66.2z
		 M70.1,114.5c0.3,0.1,0.6,0.1,0.9,0.1c1.1,0,1.9-0.9,2-1.6c0.1-1.1-0.5-2.1-2.3-2.1c-0.2,0-0.4,0-0.6,0.1V114.5z M70.1,116.6
		c0,2.2,0,2.5,1.2,2.5v0.5h-4v-0.5c1-0.1,1.1-0.2,1.2-1.3c0-0.4,0-0.8,0-1.2v-3.5c0-1.2,0-1.6-0.1-1.9c-0.1-0.5-0.3-0.6-1.1-0.7V110
		l4.3,0c2.4,0,3.1,1.1,3.1,2.5c0,0.9-0.6,2.1-1.9,2.5l1.7,3c0.6,1.1,0.9,1.4,1.7,1.5v0.3c-0.2,0-0.4,0-0.6,0c-1.8,0-2.6-0.6-3.3-2.2
		l-0.5-1.1c-0.6-1.2-0.8-1.1-1.7-1.1L70.1,116.6z"/>
</g>
</svg>
