<svg xmlns="http://www.w3.org/2000/svg" viewBox="0 0 341.13 60"><defs><style>.cls-1{fill:#fff;}.cls-2{fill:#ffcb05;}</style></defs><title>Asset 2</title><g id="Layer_2" data-name="Layer 2"><g id="Layer_1-2" data-name="Layer 1"><path class="cls-1" d="M100.15,0h1.29V59.64h-1.29V0Z"/><path class="cls-1" d="M323.59,59.7v-.59c.75,0,1.32-.11,1.32-.72a2.41,2.41,0,0,0-.12-.66l-.33-1.12h-3.88l-.35,1a2.15,2.15,0,0,0-.13.69c0,.78.81.83,1.49.86v.59h-4.54v-.59c1.16,0,1.53-.28,1.95-1.44l3-8.18-.18-.27a6.33,6.33,0,0,0,2.18-1c.22.74.26.85.5,1.62l2.45,7.5c.43,1.33.64,1.65,1.81,1.78v.59Zm-1-8.85L321,55.43h3.18l-1.56-4.58Zm-38.38,6.4A5.13,5.13,0,0,1,279.5,60,5.34,5.34,0,0,1,274,54.33c0-3,1.83-5.92,5.55-5.92a5.33,5.33,0,0,1,3.64,1.33l.75-.68L284,52.4l-.49.09a4.66,4.66,0,0,0-1.19-1.94A3.26,3.26,0,0,0,280,49.47c-2,0-3.56,1.63-3.56,4.49,0,2.42,1.29,4.7,3.84,4.7a3.56,3.56,0,0,0,3.24-1.9l.65.49Zm1.85,2.45v-.59c1.26-.11,1.27-.38,1.27-1.44,0-.39,0-.78,0-1.17V51.87c0-.71,0-1.43,0-1.78-.07-.66-.38-.74-1.24-.82v-.59h4.73v.59c-.92.09-1.27.12-1.38.73a11.53,11.53,0,0,0-.09,1.83v1.52c.95,0,1.62.08,2.54.08s1.67,0,2.62-.08V51.5c0-2,0-2.1-1.54-2.23v-.59h4.78v.59c-1.28.16-1.28.17-1.28,2.27v4.64c0,.45,0,1.84.07,2.17.07.57.4.68,1.21.76v.59H293v-.59c1.1-.13,1.4-.16,1.49-.92a14.16,14.16,0,0,0,0-1.53v-2c-.88,0-1.61-.07-2.51-.07s-1.7,0-2.64.07v2c0,2.29,0,2.29,1.46,2.45v.59Zm13.61,0v-.59c1.08-.15,1.3-.27,1.32-1.42V51.81c0-2.29,0-2.35-1.32-2.54v-.59h4.59v.59c-1.3.12-1.3.18-1.3,2.54v4.46c0,.39,0,1.62.05,1.95.07.67.39.83,1.25.89v.59Zm-31.41,0v-.59c1.08-.15,1.29-.27,1.31-1.42V51.81c0-2.29,0-2.35-1.31-2.54v-.59h4.58v.59c-1.3.12-1.3.18-1.3,2.54v4.46c0,.39,0,1.62,0,1.95.07.67.39.83,1.25.89v.59Zm-6.95,0v-.59c1.39-.1,1.39-.16,1.41-2.2V51.36l-3.86,8.48h-1l-3.54-8.59-.09,6.48c0,1.08.13,1.28,1.3,1.38v.59h-3.82v-.59c.89,0,1.23-.17,1.29-.92,0-.3.08-1.23.09-1.83l.16-4.62c0-.36,0-.9,0-1.28,0-1.1-.22-1.18-1.21-1.19v-.59h3.47L259,57.05l3.77-8.37h3.36v.65c-1.31.07-1.33.21-1.31,1.93v4.55c0,.76,0,1.68.06,2.25.06.82.38,1,1.25,1v.59Zm68.14,0v-.59c.92,0,1.25-.06,1.38-.69s.2-7.27.22-8.42a2.1,2.1,0,0,0-1.6-.73v-.59h3.32c.92,1.31,1.12,1.6,2.75,3.62l3.07,3.81V51.17c0-1.74-.06-1.84-1.8-1.9v-.59h4.34v.59c-1.21,0-1.31.26-1.33,2l-.15,8.52H339l-1-1.23c-.49-.63-1-1.25-1.5-1.86l-4.35-5.37v5.71c0,1.79.11,1.85,1.81,2v.59Zm-92-5.52a5.39,5.39,0,0,1-5.52,5.8,5.56,5.56,0,0,1-5.72-5.83,5.62,5.62,0,1,1,11.24,0ZM232,59a2.72,2.72,0,0,0,2.19-1.36,6,6,0,0,0,.89-3.74,5.26,5.26,0,0,0-1.26-3.5,2.62,2.62,0,0,0-2-.9,2.7,2.7,0,0,0-1.95,1A5.24,5.24,0,0,0,228.72,54a5.9,5.9,0,0,0,1,3.7A2.77,2.77,0,0,0,232,59Zm6.62.13v.61h4.56v-.61c-1.14-.11-1.28-.21-1.31-1.42V54.52h1.22c1.23,0,1.89.12,2,1.35h.54V52.24H245c0,1.19-.38,1.3-1.73,1.3h-1.45V49.72a8.67,8.67,0,0,1,1.31-.06c2.16,0,2.85,0,3.15,1.72h.54l-.18-2.7h-8.08v.59c.79.08,1.14.12,1.25.64a17.94,17.94,0,0,1,.09,2v3.86c0,.31,0,1.64,0,1.9,0,1.21-.17,1.31-1.31,1.42Zm-94.8.53V59c1.08-.14,1.3-.26,1.32-1.43V51.74c0-2.31,0-2.36-1.32-2.55v-.6h4.59v.6c-1.3.13-1.3.18-1.3,2.55v4.44c0,.39,0,1.63.05,2,.07.67.38.82,1.25.89v.59Zm48.59,0V59c1.08-.14,1.3-.26,1.3-1.43V51.74c0-2.31,0-2.36-1.3-2.55v-.6h4.57v.6c-1.29.13-1.29.18-1.29,2.55v4.44c0,.39,0,1.63,0,2,.08.67.4.82,1.25.89v.59Zm-62,0V59c.91-.05,1.25-.07,1.37-.68s.2-7.29.22-8.43a2.15,2.15,0,0,0-1.59-.73v-.6h3.31c.92,1.32,1.13,1.61,2.75,3.63l3.08,3.8V51.1c0-1.75-.06-1.85-1.82-1.91v-.6H142v.6c-1.2,0-1.3.26-1.32,2.06l-.16,8.51h-.66l-1-1.23-1.51-1.86L133,51.29V57c0,1.78.12,1.85,1.81,2v.6h-4.5Zm52.89-3.44.57,0c.6,1.79,1.62,2.76,3.27,2.76,1.18,0,2.21-.5,2.21-1.69s-1.21-1.75-1.74-2-.9-.31-1.34-.48a3.34,3.34,0,0,1-2.61-3.17,3.23,3.23,0,0,1,3.51-3.22,4.64,4.64,0,0,1,2.54.75l.67-.48.36,3.28-.55.11a3.89,3.89,0,0,0-.76-1.63,2.61,2.61,0,0,0-2.16-1c-1.18,0-1.86.56-1.86,1.44,0,1.31,1.3,1.75,2.53,2.15a8,8,0,0,1,1.59.64,3.19,3.19,0,0,1,1.59,2.81,3.6,3.6,0,0,1-3.88,3.49,4.85,4.85,0,0,1-2.85-.88l-.92-.67-.17-2.18Zm18.13,3.44v-.46c1,0,1.3-.39,1.3-1.27V49.77h-1.38c-1.24,0-2.06-.05-2.17,1.92h-.57l.09-3.09h10l.09,3.09h-.58c-.09-2-.92-1.92-2.17-1.92h-1.36v8.12c0,.88.27,1.25,1.28,1.27v.46Zm-79.46-11v.6c-1.46.11-1.46.16-1.48,2.5v2.59a5.82,5.82,0,0,0,.74,3.53,2.37,2.37,0,0,0,2,.93A2.69,2.69,0,0,0,126,56.62a17.89,17.89,0,0,0,.33-4.25c0-.4,0-1.72,0-2.07-.07-1-.59-1-1.57-1.11v-.6H129v.6c-1,0-1.26.21-1.32,1.32,0,.25-.14,3.32-.15,3.78a14.48,14.48,0,0,1-.27,2.48,4.29,4.29,0,0,1-4.41,3.12,5.33,5.33,0,0,1-2.88-.78c-1.65-1.11-1.67-2.76-1.67-4.55v-2.5c0-1.18,0-1.71,0-2-.09-.69-.44-.83-1.26-.88v-.6Zm39.09,0v.6c-1.06.16-1.2.46-2.1,2.64l-3.36,8h-.6l-3-8.14c-.74-2.09-.84-2.33-1.94-2.51v-.6h5.23v.6c-.9,0-1.47.06-1.47.7a5.1,5.1,0,0,0,.38,1.5L156,57l2.24-5.8a4.68,4.68,0,0,0,.33-1.17c0-.79-.78-.83-1.47-.84v-.6Zm52.29,11V59c.86-.09,1.18-.13,1.4-.35s.26-.52.27-1.73V55L212,50.47c-.81-1.19-.81-1.22-1.88-1.28v-.61h5.74v.61c-1.16,0-1.67.06-1.67.59a2.54,2.54,0,0,0,.48,1.11l1.69,2.77L218,50.9a3,3,0,0,0,.44-1.12c0-.53-.46-.54-1.22-.59v-.61h4.3v.61c-1.11,0-1.43.36-2.69,2.42l-1.71,2.87v2.31c0,2,0,2.15,1.64,2.24v.6h-5.42Zm-42.84,0a26.49,26.49,0,0,1,.24-2.85h-.54c-.38,2-1.48,1.87-3.08,1.87s-1.76-.39-1.76-1.11V54.45h1.19c1.36,0,1.75.11,1.75,1.35h.53V52.16h-.53c-.11,1-.31,1.31-1.73,1.31h-1.2V49.58h1.35c1.88,0,2.55.13,2.8,1.64h.5l-.07-2.63h-7.85v.59c.8.09,1.14.13,1.25.65a15.66,15.66,0,0,1,.09,2v3.89c0,.29,0,1.62,0,1.89,0,1.19-.18,1.3-1.32,1.41v.61Zm146-4.79v.6c-1,0-1,.33-1,2.43v.82a7.19,7.19,0,0,1-4.24,1.3c-3.79,0-5.61-2.87-5.61-5.76,0-3.54,2.39-5.83,5.39-5.83a6.65,6.65,0,0,1,3.86,1.26l.58-.66.08,3.45-.45.07a5.52,5.52,0,0,0-1.39-2.24,3.09,3.09,0,0,0-2.18-.82c-1.93,0-3.52,1.62-3.52,4.79,0,2.55,1.25,4.71,3.39,4.71a2.48,2.48,0,0,0,1.92-.92,1.58,1.58,0,0,0,.22-1c-.05-1.41-.24-1.44-1.47-1.56v-.6ZM175.57,53.7a5.91,5.91,0,0,0,1,.11A2.2,2.2,0,0,0,178.85,52c.07-1.28-.57-2.39-2.6-2.39a3.44,3.44,0,0,0-.68.06V53.7Zm0,2.41c0,2.53,0,2.87,1.35,2.9v.62h-4.61V59c1.19-.09,1.31-.28,1.33-1.47,0-.45,0-1,0-1.41v-4A20.53,20.53,0,0,0,173.6,50c-.09-.6-.38-.72-1.29-.8v-.59l5,0c2.72,0,3.58,1.3,3.58,2.82a3.08,3.08,0,0,1-2.18,2.92l2,3.4c.7,1.3,1.08,1.6,2,1.72v.37c-.23,0-.47,0-.71,0-2.09,0-2.94-.71-3.82-2.57l-.61-1.3c-.65-1.39-.87-1.3-1.91-1.33v1.44Z"/><path class="cls-2" d="M41.7,49.23,24.62,25.89v17h6.79V59.64H0V42.87H6.36V16.77H0V0H24.68l17,23.51L58.72,0H83.39V16.77H77v26.1h6.37V59.64H52V42.87h6.79v-17L41.7,49.23Z"/><path class="cls-1" d="M125,6.4c0,.71,0,1.39-.08,2a4.67,4.67,0,0,1-.44,1.7,2.71,2.71,0,0,1-1,1.16,3.44,3.44,0,0,1-1.91.44,3.1,3.1,0,0,1-2.48-1,4.44,4.44,0,0,1-.84-2.94V4a6.49,6.49,0,0,1,.19-1.57A3.63,3.63,0,0,1,119,1.16a3.11,3.11,0,0,1,1.06-.85A3.24,3.24,0,0,1,121.59,0a3.53,3.53,0,0,1,1.56.31,3,3,0,0,1,1,.85,3.66,3.66,0,0,1,.61,1.29A6.58,6.58,0,0,1,125,4.11V6.4Zm-1-1.86a12.19,12.19,0,0,0-.07-1.37A3.67,3.67,0,0,0,123.58,2a2,2,0,0,0-.73-.83,2.66,2.66,0,0,0-1.26-.31,2.14,2.14,0,0,0-1.26.33,2.25,2.25,0,0,0-.72.84,3.48,3.48,0,0,0-.31,1.15c0,.43-.07.86-.07,1.28V7.28a5.46,5.46,0,0,0,.51,2.72,2,2,0,0,0,1.85.89,2.06,2.06,0,0,0,1.43-.45,2.46,2.46,0,0,0,.7-1.16A6.12,6.12,0,0,0,124,7.7c0-.59,0-1.18,0-1.76V4.54Z"/><path class="cls-1" d="M129.43,1.12v4.2h3.48v.84h-3.48v5.35h-1V.28h4.77v.84Z"/><path class="cls-1" d="M136.93,1.12v4.2h3.48v.84h-3.48v5.35h-1V.28h4.76v.84Z"/><path class="cls-1" d="M143.6,11.51V.28h1V11.51Z"/><path class="cls-1" d="M154.41,8.35a4.9,4.9,0,0,1-.17,1.37,2.49,2.49,0,0,1-.58,1.06,3.13,3.13,0,0,1-1,.7,3.36,3.36,0,0,1-1.41.25,3.08,3.08,0,0,1-1.82-.46,2.62,2.62,0,0,1-.93-1.19,5,5,0,0,1-.34-1.63c0-.59-.05-1.2-.05-1.83s0-1.27,0-1.8,0-1,.09-1.45q.22-3.31,3.19-3.31a2.94,2.94,0,0,1,2.12.72,3,3,0,0,1,.76,2.32v.22h-1V3.17a.22.22,0,0,1,0-.11c0-1.44-.63-2.16-1.88-2.16a1.93,1.93,0,0,0-1.29.39,2.4,2.4,0,0,0-.66,1,4,4,0,0,0-.25,1.28c0,.47,0,.9,0,1.31V7.9a3.74,3.74,0,0,0,.56,2.18,1.83,1.83,0,0,0,1.59.79,1.93,1.93,0,0,0,1-.23A1.84,1.84,0,0,0,153,10a2.15,2.15,0,0,0,.31-.82,7,7,0,0,0,.09-.91h1.06v0Z"/><path class="cls-1" d="M157.66,11.51V.28h5.08v.84h-4.08v4.2h3.9v.84h-3.9v4.51h4.19v.84Z"/><path class="cls-1" d="M177.46,6.4c0,.71,0,1.39-.08,2a4.67,4.67,0,0,1-.43,1.7,2.85,2.85,0,0,1-1,1.16,3.5,3.5,0,0,1-1.92.44,3.08,3.08,0,0,1-2.47-1,4.44,4.44,0,0,1-.84-2.94V4a6,6,0,0,1,.19-1.57,3.46,3.46,0,0,1,.59-1.27,3.11,3.11,0,0,1,1.06-.85A3.22,3.22,0,0,1,174.05,0a3.5,3.5,0,0,1,1.56.31,3,3,0,0,1,1.06.85,3.66,3.66,0,0,1,.61,1.29,7.1,7.1,0,0,1,.18,1.66V6.4Zm-1-1.86a12.16,12.16,0,0,0-.08-1.37A3.67,3.67,0,0,0,176,2a1.93,1.93,0,0,0-.72-.83,2.67,2.67,0,0,0-1.27-.31,2.18,2.18,0,0,0-1.26.33,2.22,2.22,0,0,0-.71.84,3.48,3.48,0,0,0-.31,1.15c0,.43-.07.86-.08,1.28V7.28A5.69,5.69,0,0,0,172.2,10a2,2,0,0,0,1.85.89,2.07,2.07,0,0,0,1.44-.45,2.54,2.54,0,0,0,.7-1.16,6.59,6.59,0,0,0,.23-1.58c0-.59,0-1.18,0-1.76V4.54Z"/><path class="cls-1" d="M181.89,1.12v4.2h3.49v.84h-3.49v5.35h-1V.28h4.76v.84Z"/><path class="cls-1" d="M196.19,1.12V11.51h-1V1.12h-2.72V.28h6.44v.84Z"/><path class="cls-1" d="M207.12,11.51V6.16h-4.41v5.35h-1V.28h1v5h4.41v-5h1V11.51Z"/><path class="cls-1" d="M211.85,11.51V.28h5.09v.84h-4.1v4.2h3.91v.84h-3.91v4.51h4.21v.84Z"/><path class="cls-1" d="M230.5,3.17a4.88,4.88,0,0,1-.21,1.57,2.17,2.17,0,0,1-.64,1,2.4,2.4,0,0,1-1,.46,6.08,6.08,0,0,1-1.28.13h-1.47v5.22h-1V.28H228a4.4,4.4,0,0,1,1.08.12,1.64,1.64,0,0,1,.78.47,2.23,2.23,0,0,1,.46.88,5.92,5.92,0,0,1,.17,1.42Zm-1,0a3.57,3.57,0,0,0-.17-1.24,1,1,0,0,0-.51-.59,2.09,2.09,0,0,0-.85-.2,10.61,10.61,0,0,0-1.16,0h-.85V5.44h1.79a2.12,2.12,0,0,0,1-.23,1.33,1.33,0,0,0,.59-.68,3.33,3.33,0,0,0,.2-1.35Z"/><path class="cls-1" d="M239.2,2.94a5.81,5.81,0,0,1-.09,1.1,2.31,2.31,0,0,1-.3.78,1.59,1.59,0,0,1-.56.53,2.62,2.62,0,0,1-.84.31,1.89,1.89,0,0,1,1.22.55A2.42,2.42,0,0,1,239,7.6l0,2.59.11,1.32h-1c0-.14,0-.32,0-.53s0-.38,0-.52l0-.5L238,7.87a3,3,0,0,0-.13-.87,1.19,1.19,0,0,0-.35-.56,1.32,1.32,0,0,0-.67-.28,8.6,8.6,0,0,0-1-.09h-1.49v5.44h-1V.28h2.86a8.37,8.37,0,0,1,1.3.09,2.13,2.13,0,0,1,.92.38,1.77,1.77,0,0,1,.57.8,4.4,4.4,0,0,1,.2,1.39Zm-1,0A2.33,2.33,0,0,0,238,1.79a1.13,1.13,0,0,0-.59-.51,2.59,2.59,0,0,0-.9-.16c-.35,0-.74,0-1.15,0h-1v4.1h1.27a7.07,7.07,0,0,0,1.09-.06,1.91,1.91,0,0,0,.81-.29,1.2,1.2,0,0,0,.48-.7,5.39,5.39,0,0,0,.17-1.26Z"/><path class="cls-1" d="M249.23,6.4c0,.71,0,1.39-.08,2a4.88,4.88,0,0,1-.43,1.7,2.8,2.8,0,0,1-1.05,1.16,3.4,3.4,0,0,1-1.9.44,3.14,3.14,0,0,1-2.49-1,4.5,4.5,0,0,1-.83-2.94V4a6.5,6.5,0,0,1,.18-1.57,3.64,3.64,0,0,1,.6-1.27,3.17,3.17,0,0,1,1.05-.85A3.27,3.27,0,0,1,245.82,0a3.53,3.53,0,0,1,1.56.31,3,3,0,0,1,1.06.85,3.48,3.48,0,0,1,.6,1.29,6.58,6.58,0,0,1,.19,1.66V6.4Zm-1-1.86a10.19,10.19,0,0,0-.08-1.37A3.94,3.94,0,0,0,247.82,2a2,2,0,0,0-.74-.83,2.66,2.66,0,0,0-1.26-.31,2.09,2.09,0,0,0-1.25.33,2.16,2.16,0,0,0-.72.84,3.26,3.26,0,0,0-.31,1.15c0,.43-.07.86-.08,1.28V7.28A5.45,5.45,0,0,0,244,10a2,2,0,0,0,1.84.89,2.09,2.09,0,0,0,1.44-.45A2.44,2.44,0,0,0,248,9.28a6.1,6.1,0,0,0,.24-1.58c0-.59,0-1.18,0-1.76V4.54Z"/><path class="cls-1" d="M256.12,11.51H254.9L251.77.28h1l2.68,10.07L258.28.28h1l-3.13,11.23Z"/><path class="cls-1" d="M268.55,6.4c0,.71,0,1.39-.08,2a4.88,4.88,0,0,1-.43,1.7,2.85,2.85,0,0,1-1,1.16,3.52,3.52,0,0,1-1.92.44,3.08,3.08,0,0,1-2.47-1,4.39,4.39,0,0,1-.84-2.94V4A6.5,6.5,0,0,1,262,2.43a3.63,3.63,0,0,1,.59-1.27,3.15,3.15,0,0,1,1.07-.85A3.2,3.2,0,0,1,265.14,0a3.5,3.5,0,0,1,1.56.31,3,3,0,0,1,1.06.85,3.66,3.66,0,0,1,.61,1.29,7.67,7.67,0,0,1,.18,1.66V6.4Zm-1-1.86a12.16,12.16,0,0,0-.08-1.37A3.67,3.67,0,0,0,267.13,2a2,2,0,0,0-.73-.83,2.63,2.63,0,0,0-1.26-.31,2.18,2.18,0,0,0-1.26.33,2.22,2.22,0,0,0-.71.84,3.49,3.49,0,0,0-.32,1.15c0,.43-.06.86-.07,1.28V7.28a5.58,5.58,0,0,0,.51,2.72,2,2,0,0,0,1.85.89,2.09,2.09,0,0,0,1.44-.45,2.54,2.54,0,0,0,.7-1.16,6.15,6.15,0,0,0,.22-1.58c0-.59,0-1.18,0-1.76V4.54Z"/><path class="cls-1" d="M277.85,8.84c0,1.9-1,2.86-3,2.86a3.44,3.44,0,0,1-2.27-.69,2.61,2.61,0,0,1-.82-2.14V8.4h1v.22a3.58,3.58,0,0,0,.15,1.07A1.51,1.51,0,0,0,274,10.75a2.82,2.82,0,0,0,.89.11,3.4,3.4,0,0,0,.81-.09,1.63,1.63,0,0,0,.6-.31,1.39,1.39,0,0,0,.38-.61,3.75,3.75,0,0,0,.13-1,3.51,3.51,0,0,0-.06-.7,1.43,1.43,0,0,0-.26-.58,1.94,1.94,0,0,0-.55-.51c-.23-.16-.51-.35-.87-.57l-1.14-.68a5.68,5.68,0,0,1-.83-.54,3.77,3.77,0,0,1-.64-.62,2.21,2.21,0,0,1-.41-.81,4.23,4.23,0,0,1-.13-1,2.58,2.58,0,0,1,.76-2,3.15,3.15,0,0,1,2.19-.7,5.11,5.11,0,0,1,1.22.14,2.36,2.36,0,0,1,.92.47,2.59,2.59,0,0,1,.59.83,3.41,3.41,0,0,1,.21,1.27v.35h-1V3a2.19,2.19,0,0,0-.47-1.56,2.07,2.07,0,0,0-1.48-.5c-1.28,0-1.92.59-1.92,1.76a3.76,3.76,0,0,0,.07.73,1.56,1.56,0,0,0,.28.58,2.88,2.88,0,0,0,.53.51,9.85,9.85,0,0,0,.86.57l1.21.72a9.62,9.62,0,0,1,1,.66,3,3,0,0,1,.61.62,1.68,1.68,0,0,1,.29.73,6.63,6.63,0,0,1,.08,1Z"/><path class="cls-1" d="M284.1,1.12V11.51h-1V1.12h-2.72V.28h6.44v.84Z"/><path class="cls-1" d="M132.39,42.51l-2-6.56H120.6l-2,6.56h-2.21l7.88-24.95h2.63l7.77,25ZM125.51,20l-4.25,14.1h8.53L125.51,20Z"/><path class="cls-1" d="M151.06,35.5a11.14,11.14,0,0,1-.39,3,5.6,5.6,0,0,1-1.28,2.35,6.73,6.73,0,0,1-2.17,1.56,7.2,7.2,0,0,1-3.12.55,7,7,0,0,1-4-1A5.87,5.87,0,0,1,138,39.33a11.32,11.32,0,0,1-.75-3.63c-.07-1.3-.11-2.65-.11-4s0-2.83,0-4,.07-2.24.17-3.21q.51-7.36,7.09-7.36a6.61,6.61,0,0,1,4.73,1.59q1.69,1.59,1.69,5.14v.49h-2.27V24a.58.58,0,0,1,0-.24c0-3.21-1.4-4.81-4.18-4.81a4.19,4.19,0,0,0-2.84.87A5.15,5.15,0,0,0,140.09,22a9,9,0,0,0-.54,2.83c-.06,1-.09,2-.11,2.91V34.5a8.22,8.22,0,0,0,1.24,4.83,4,4,0,0,0,3.53,1.77,4.2,4.2,0,0,0,2.21-.52,3.88,3.88,0,0,0,1.38-1.35,5,5,0,0,0,.69-1.83,13.69,13.69,0,0,0,.21-2h2.36v.14Z"/><path class="cls-1" d="M168.34,35.5a11.14,11.14,0,0,1-.39,3,5.47,5.47,0,0,1-1.27,2.35,6.78,6.78,0,0,1-2.18,1.56,7.17,7.17,0,0,1-3.12.55,7,7,0,0,1-4-1,5.85,5.85,0,0,1-2.07-2.67,11.33,11.33,0,0,1-.76-3.63c-.07-1.3-.1-2.65-.1-4s0-2.83,0-4,.08-2.24.17-3.21q.52-7.36,7.09-7.36a6.61,6.61,0,0,1,4.73,1.59q1.69,1.59,1.7,5.14v.49h-2.28V24a.83.83,0,0,1,0-.24c0-3.21-1.4-4.81-4.18-4.81a4.19,4.19,0,0,0-2.84.87A5.22,5.22,0,0,0,157.38,22a9,9,0,0,0-.55,2.83c-.05,1-.09,2-.11,2.91V34.5A8.15,8.15,0,0,0,158,39.33a4,4,0,0,0,3.53,1.77,4.25,4.25,0,0,0,2.21-.52,3.94,3.94,0,0,0,1.37-1.35,4.83,4.83,0,0,0,.69-1.83,13.69,13.69,0,0,0,.21-2h2.36v.14Z"/><path class="cls-1" d="M185.1,23.47a13.39,13.39,0,0,1-.2,2.45,5.3,5.3,0,0,1-.66,1.73A3.94,3.94,0,0,1,183,28.83a5.68,5.68,0,0,1-1.87.69,4,4,0,0,1,2.7,1.21,5.2,5.2,0,0,1,.86,3.11l.14,5.74.24,2.93h-2.24c0-.32-.08-.7-.11-1.17a10.92,10.92,0,0,0-.1-1.17l-.07-1.11-.1-4.63a7.2,7.2,0,0,0-.28-1.94,2.71,2.71,0,0,0-.79-1.24,3,3,0,0,0-1.49-.63c-.62-.09-1.37-.16-2.25-.2h-3.32V42.51H172.1V17.56h6.36a19,19,0,0,1,2.88.2,4.87,4.87,0,0,1,2.06.84,3.66,3.66,0,0,1,1.25,1.8,10,10,0,0,1,.45,3.07Zm-2.28-.07a5,5,0,0,0-.49-2.49A2.54,2.54,0,0,0,181,19.77a6.1,6.1,0,0,0-2-.34q-1.17,0-2.55,0h-2.15v9.12h2.84a17.25,17.25,0,0,0,2.42-.14,4.06,4.06,0,0,0,1.8-.66,2.73,2.73,0,0,0,1.07-1.55,12.34,12.34,0,0,0,.38-2.8Z"/><path class="cls-1" d="M189.63,42.51V17.56h11.3v1.87h-9.09v9.33h8.68v1.86h-8.68v10h9.33v1.86Z"/><path class="cls-1" d="M219.42,29.9c0,1.59,0,3.13-.14,4.63a11.68,11.68,0,0,1-.93,4,6.23,6.23,0,0,1-2.56,2.87,9.28,9.28,0,0,1-4.87,1.07H205V17.56h7a8.41,8.41,0,0,1,3.62.69,5.35,5.35,0,0,1,2.28,2A9.29,9.29,0,0,1,219,23.4a20.37,20.37,0,0,1,.38,4.08V29.9Zm-2.31-1.11a28.8,28.8,0,0,0-.31-4.7,6.79,6.79,0,0,0-1.08-2.87,3.72,3.72,0,0,0-2.11-1.41,12.21,12.21,0,0,0-3.35-.38h-3.08V40.65H210A10.68,10.68,0,0,0,214,40a4,4,0,0,0,2.11-2,10.53,10.53,0,0,0,.83-3.66c.11-1.52.16-3.38.14-5.57Z"/><path class="cls-1" d="M224.33,42.51V17.56h2.21v25Z"/><path class="cls-1" d="M238.05,19.43V42.51h-2.21V19.43h-6.05V17.56H244.1v1.87Z"/><path class="cls-1" d="M261,42.51,259,36h-9.78l-2,6.56h-2.22L253,17.56h2.62l7.77,25ZM254.16,20l-4.25,14.1h8.54L254.16,20Z"/><path class="cls-1" d="M272.62,19.43V42.51h-2.21V19.43h-6.05V17.56h14.31v1.87Z"/><path class="cls-1" d="M281.92,42.51V17.56h2.21v25Z"/><path class="cls-1" d="M304,31.15c0,1.58-.06,3.09-.17,4.52a10.1,10.1,0,0,1-1,3.77A6.35,6.35,0,0,1,300.55,42a7.84,7.84,0,0,1-4.25,1,6.86,6.86,0,0,1-5.5-2.18q-1.87-2.18-1.87-6.53V25.82a13.85,13.85,0,0,1,.42-3.49,7.55,7.55,0,0,1,1.31-2.8,6.55,6.55,0,0,1,2.36-1.9,7.18,7.18,0,0,1,3.41-.69,7.71,7.71,0,0,1,3.46.69,6.54,6.54,0,0,1,2.35,1.9,7.78,7.78,0,0,1,1.35,2.87,14.91,14.91,0,0,1,.41,3.66v5.09ZM301.76,27a26.78,26.78,0,0,0-.17-3,8.56,8.56,0,0,0-.73-2.63,4.24,4.24,0,0,0-1.62-1.83,5.6,5.6,0,0,0-2.81-.7,4.43,4.43,0,0,0-4.38,2.61,7.12,7.12,0,0,0-.7,2.55c-.09,1-.15,1.89-.17,2.84v6.28a12.38,12.38,0,0,0,1.14,6.06q1.14,1.94,4.11,2a4.63,4.63,0,0,0,3.19-1,5.44,5.44,0,0,0,1.55-2.57,14.66,14.66,0,0,0,.52-3.52c0-1.32.07-2.62.07-3.91V27Z"/><path class="cls-1" d="M321.12,42.51,310.88,20.05V42.51H308.7V17.56h3.4L322.39,40V17.56h2.18v25Z"/></g></g></svg>