<?xml version="1.0" encoding="UTF-8"?>
<svg width="283px" height="83px" viewBox="0 0 283 83" version="1.1" xmlns="http://www.w3.org/2000/svg" xmlns:xlink="http://www.w3.org/1999/xlink">
    <!-- Generator: Sketch 50.2 (55047) - http://www.bohemiancoding.com/sketch -->
    <title>Group 2</title>
    <desc>Created with Sketch.</desc>
    <defs>
        <polygon id="path-1" points="0 0.399 33.6239 0.399 33.6239 19.48 0 19.48"></polygon>
        <polygon id="path-3" points="0.3464 0.208 29.3864 0.208 29.3864 35.1516 0.3464 35.1516"></polygon>
        <polygon id="path-5" points="0 83 282.052 83 282.052 0.208 0 0.208"></polygon>
    </defs>
    <g id="Symbols" stroke="none" stroke-width="1" fill="none" fill-rule="evenodd">
        <g id="footer-v2" transform="translate(-175.000000, -127.000000)">
            <g id="Group-2" transform="translate(175.000000, 127.000000)">
                <g id="Group-3" transform="translate(0.000000, 15.000000)">
                    <mask id="mask-2" fill="white">
                        <use xlink:href="#path-1"></use>
                    </mask>
                    <g id="Clip-2"></g>
                    <path d="M31.8779,2.002 C33.0419,3.07 33.6239,4.564 33.6239,6.483 C33.6239,7.036 33.5399,7.779 33.3719,8.716 L31.2119,19.48 L28.6559,19.48 L30.8159,8.68 C30.9359,8.128 30.9959,7.54 30.9959,6.916 C30.9959,5.572 30.5999,4.534 29.8079,3.802 C29.0159,3.07 27.8519,2.704 26.3159,2.704 C24.3959,2.704 22.7999,3.238 21.5279,4.306 C20.2559,5.374 19.4039,6.952 18.9719,9.04 L16.8839,19.48 L14.3279,19.48 L16.4879,8.68 C16.6079,8.008 16.6679,7.432 16.6679,6.952 C16.6679,5.584 16.2779,4.534 15.4979,3.802 C14.7179,3.07 13.5479,2.704 11.9879,2.704 C10.0439,2.704 8.4359,3.262 7.1639,4.378 C5.8919,5.494 5.0279,7.145 4.5719,9.328 L2.5559,19.48 L-0.0001,19.48 L3.7439,0.544 L6.1919,0.544 L5.5799,3.567 C7.3079,1.456 9.6959,0.399 12.7439,0.399 C14.3279,0.399 15.6539,0.724 16.7219,1.372 C17.7899,2.02 18.5279,2.956 18.9359,4.18 C19.8719,2.932 21.0179,1.99 22.3739,1.354 C23.7299,0.718 25.2479,0.399 26.9279,0.399 C29.0639,0.399 30.7139,0.935 31.8779,2.002" id="Fill-1" fill="#FFCB06" mask="url(#mask-2)"></path>
                </g>
                <path d="M56.2568,15.5439 L42.4328,36.9279 C41.2808,38.7029 40.2008,39.9339 39.1928,40.6179 C38.1848,41.3019 36.9848,41.6439 35.5928,41.6439 C34.6808,41.6439 33.8178,41.4929 33.0008,41.1929 C32.1858,40.8939 31.5488,40.4799 31.0928,39.9519 L32.4608,38.0799 C33.3248,38.9909 34.4408,39.4469 35.8088,39.4469 C36.6488,39.4469 37.4048,39.2199 38.0768,38.7639 C38.7488,38.3079 39.4448,37.5159 40.1648,36.3879 L41.4968,34.3719 L36.7808,15.5439 L39.3728,15.5439 L43.2968,31.6719 L53.6288,15.5439 L56.2568,15.5439 Z" id="Fill-4" fill="#FFCB06"></path>
                <polygon id="Fill-6" fill="#FFCB06" points="91.1997 34.4795 91.1037 16.6715 82.4637 31.1675 78.2397 31.1675 69.6477 17.1515 69.6477 34.4795 60.8637 34.4795 60.8637 0.8795 68.6877 0.8795 80.4957 20.2715 92.0157 0.8795 99.8397 0.8795 99.9357 34.4795"></polygon>
                <g id="Group-10" transform="translate(104.000000, 0.000000)">
                    <mask id="mask-4" fill="white">
                        <use xlink:href="#path-3"></use>
                    </mask>
                    <g id="Clip-9"></g>
                    <path d="M6.5864,34.1436 C4.0254,33.4716 1.9464,32.5766 0.3464,31.4556 L3.4664,24.4476 C4.9704,25.4406 6.7134,26.2406 8.6984,26.8476 C10.6824,27.4566 12.6344,27.7596 14.5544,27.7596 C18.2024,27.7596 20.0264,26.8476 20.0264,25.0236 C20.0264,24.0636 19.5054,23.3516 18.4664,22.8876 C17.4264,22.4236 15.7544,21.9356 13.4504,21.4236 C10.9224,20.8796 8.8104,20.2956 7.1144,19.6716 C5.4184,19.0476 3.9614,18.0476 2.7464,16.6716 C1.5294,15.2956 0.9224,13.4406 0.9224,11.1036 C0.9224,9.0566 1.4824,7.2076 2.6024,5.5596 C3.7224,3.9126 5.3944,2.6076 7.6184,1.6476 C9.8424,0.6876 12.5694,0.2076 15.8024,0.2076 C18.0104,0.2076 20.1864,0.4556 22.3304,0.9526 C24.4744,1.4486 26.3624,2.1756 27.9944,3.1356 L25.0664,10.1916 C21.8664,8.4636 18.7614,7.5996 15.7544,7.5996 C13.8654,7.5996 12.4904,7.8796 11.6264,8.4396 C10.7624,8.9996 10.3304,9.7286 10.3304,10.6236 C10.3304,11.5196 10.8414,12.1926 11.8664,12.6396 C12.8904,13.0876 14.5384,13.5516 16.8104,14.0316 C19.3704,14.5766 21.4904,15.1606 23.1704,15.7846 C24.8504,16.4086 26.3064,17.4006 27.5394,18.7596 C28.7704,20.1206 29.3864,21.9676 29.3864,24.3036 C29.3864,26.3196 28.8264,28.1436 27.7074,29.7756 C26.5864,31.4086 24.9054,32.7116 22.6664,33.6876 C20.4264,34.6636 17.7064,35.1516 14.5064,35.1516 C11.7864,35.1516 9.1464,34.8156 6.5864,34.1436" id="Fill-8" fill="#FFCB06" mask="url(#mask-4)"></path>
                </g>
                <polygon id="Fill-11" fill="#FFCB06" points="75.3999 46.1279 61.0639 46.1279 61.0639 37.6799 100.1039 37.6799 100.1039 46.1279 85.7679 46.1279 85.7679 82.4799 75.3999 82.4799"></polygon>
                <path d="M121.4521,72.0469 C123.1191,70.2919 123.9541,67.9429 123.9541,64.9949 C123.9541,62.0489 123.1191,59.6969 121.4521,57.9429 C119.7831,56.1879 117.6491,55.3099 115.0491,55.3099 C112.4501,55.3099 110.3051,56.1879 108.6141,57.9429 C106.9241,59.6969 106.0791,62.0489 106.0791,64.9949 C106.0791,67.9429 106.9241,70.2919 108.6141,72.0469 C110.3051,73.8019 112.4501,74.6799 115.0491,74.6799 C117.6491,74.6799 119.7831,73.8019 121.4521,72.0469 M105.1371,80.6929 C102.2121,79.1539 99.9261,77.0199 98.2791,74.2899 C96.6321,71.5599 95.8091,68.4619 95.8091,64.9949 C95.8091,61.5279 96.6321,58.4299 98.2791,55.6999 C99.9261,52.9699 102.2121,50.8359 105.1371,49.2969 C108.0621,47.7599 111.3661,46.9889 115.0491,46.9889 C118.7321,46.9889 122.0261,47.7599 124.9301,49.2969 C127.8321,50.8359 130.1071,52.9699 131.7551,55.6999 C133.4011,58.4299 134.2241,61.5279 134.2241,64.9949 C134.2241,68.4619 133.4011,71.5599 131.7551,74.2899 C130.1071,77.0199 127.8321,79.1539 124.9301,80.6929 C122.0261,82.2309 118.7321,82.9999 115.0491,82.9999 C111.3661,82.9999 108.0621,82.2309 105.1371,80.6929" id="Fill-13" fill="#FFCB06"></path>
                <path d="M163.0781,72.0469 C164.7451,70.2919 165.5801,67.9429 165.5801,64.9949 C165.5801,62.0489 164.7451,59.6969 163.0781,57.9429 C161.4091,56.1879 159.2751,55.3099 156.6751,55.3099 C154.0751,55.3099 151.9311,56.1879 150.2401,57.9429 C148.5501,59.6969 147.7051,62.0489 147.7051,64.9949 C147.7051,67.9429 148.5501,70.2919 150.2401,72.0469 C151.9311,73.8019 154.0751,74.6799 156.6751,74.6799 C159.2751,74.6799 161.4091,73.8019 163.0781,72.0469 M146.7631,80.6929 C143.8381,79.1539 141.5521,77.0199 139.9051,74.2899 C138.2581,71.5599 137.4351,68.4619 137.4351,64.9949 C137.4351,61.5279 138.2581,58.4299 139.9051,55.6999 C141.5521,52.9699 143.8381,50.8359 146.7631,49.2969 C149.6871,47.7599 152.9911,46.9889 156.6751,46.9889 C160.3571,46.9889 163.6511,47.7599 166.5561,49.2969 C169.4581,50.8359 171.7321,52.9699 173.3801,55.6999 C175.0261,58.4299 175.8501,61.5279 175.8501,64.9949 C175.8501,68.4619 175.0261,71.5599 173.3801,74.2899 C171.7321,77.0199 169.4581,79.1539 166.5561,80.6929 C163.6511,82.2309 160.3571,82.9999 156.6751,82.9999 C152.9911,82.9999 149.6871,82.2309 146.7631,80.6929" id="Fill-15" fill="#FFCB06"></path>
                <mask id="mask-6" fill="white">
                    <use xlink:href="#path-5"></use>
                </mask>
                <g id="Clip-18"></g>
                <polygon id="Fill-17" fill="#FFCB06" mask="url(#mask-6)" points="181.401 82.479 191.541 82.479 191.541 34.25 181.401 34.25"></polygon>
                <polygon id="Fill-19" fill="#FFCB06" mask="url(#mask-6)" points="214.3877 68.7646 209.5127 73.5756 209.5127 82.4796 199.3727 82.4796 199.3727 34.2496 209.5127 34.2496 209.5127 61.5496 224.3327 47.5096 236.4227 47.5096 221.8637 62.3296 237.7227 82.4796 225.4387 82.4796"></polygon>
                <path d="M241.148,82.48 L251.288,82.48 L251.288,47.51 L241.148,47.51 L241.148,82.48 Z M241.668,41.01 C240.498,39.927 239.913,38.583 239.913,36.979 C239.913,35.377 240.498,34.033 241.668,32.95 C242.838,31.867 244.354,31.325 246.218,31.325 C248.081,31.325 249.598,31.845 250.768,32.885 C251.938,33.925 252.523,35.225 252.523,36.785 C252.523,38.475 251.938,39.872 250.768,40.978 C249.598,42.082 248.081,42.635 246.218,42.635 C244.354,42.635 242.838,42.094 241.668,41.01 Z" id="Fill-20" fill="#FFCB06" mask="url(#mask-6)"></path>
                <path d="M282.0518,80.79 C281.0548,81.527 279.8308,82.079 278.3798,82.447 C276.9278,82.814 275.3998,83 273.7968,83 C269.6368,83 266.4198,81.938 264.1448,79.814 C261.8698,77.692 260.7328,74.572 260.7328,70.455 L260.7328,56.09 L255.3368,56.09 L255.3368,48.29 L260.7328,48.29 L260.7328,39.774 L270.8718,39.774 L270.8718,48.29 L279.5818,48.29 L279.5818,56.09 L270.8718,56.09 L270.8718,70.325 C270.8718,71.799 271.2508,72.936 272.0098,73.737 C272.7678,74.54 273.8398,74.939 275.2278,74.939 C276.8298,74.939 278.1948,74.507 279.3228,73.64 L282.0518,80.79 Z" id="Fill-21" fill="#FFCB06" mask="url(#mask-6)"></path>
            </g>
        </g>
    </g>
</svg>