<?xml version="1.0" encoding="UTF-8"?>
<svg width="217px" height="22px" viewBox="0 0 217 22" version="1.1" xmlns="http://www.w3.org/2000/svg" xmlns:xlink="http://www.w3.org/1999/xlink">
    <!-- Generator: Sketch 50.2 (55047) - http://www.bohemiancoding.com/sketch -->
    <title>U-M_white</title>
    <desc>Created with Sketch.</desc>
    <defs></defs>
    <g id="Symbols" stroke="none" stroke-width="1" fill="none" fill-rule="evenodd">
        <g id="footer-v2" transform="translate(-429.000000, -42.000000)" fill-rule="nonzero">
            <g id="U-M_white" transform="translate(429.000000, 42.000000)">
                <g id="Group" transform="translate(34.684426, 5.280000)" fill="#FFFFFF">
                    <path d="M167.542736,10.208 L167.542736,9.68 C168.187582,9.62133333 168.715184,9.56266667 168.715184,9.03466667 C168.715184,8.85866667 168.656561,8.624 168.597939,8.448 L168.304827,7.45066667 L164.90473,7.45066667 L164.611618,8.272 C164.552995,8.50666667 164.494373,8.68266667 164.494373,8.85866667 C164.494373,9.56266667 165.197841,9.56266667 165.842688,9.62133333 L165.842688,10.1493333 L161.856366,10.1493333 L161.856366,9.62133333 C162.852947,9.56266667 163.204681,9.38666667 163.556415,8.33066667 L166.194422,1.11466667 L166.018555,0.88 C167.13238,0.528 167.484114,0.352 167.953093,-1.77635684e-15 C168.12896,0.645333333 168.187582,0.762666667 168.422072,1.408 L170.5911,8.03733333 C171.001456,9.21066667 171.177323,9.504 172.173904,9.62133333 L172.173904,10.1493333 L167.542736,10.1493333 L167.542736,10.208 Z M166.663401,2.40533333 L165.256464,6.45333333 L168.070338,6.45333333 L166.663401,2.40533333 Z" id="Shape"></path>
                    <path d="M136.47288,8.03733333 C136.062523,8.74133333 135.00732,10.4426667 132.310691,10.4426667 C129.379573,10.4426667 127.503657,8.272 127.503657,5.456 C127.503657,2.816 129.086461,0.234666667 132.369314,0.234666667 C134.069362,0.234666667 135.00732,0.938666667 135.593544,1.408 L136.23839,0.821333333 L136.297013,3.75466667 L135.886656,3.81333333 C135.710789,3.22666667 135.476299,2.816 134.831453,2.112 C134.538341,1.81866667 133.834873,1.17333333 132.77967,1.17333333 C131.020999,1.17333333 129.614062,2.58133333 129.614062,5.104 C129.614062,7.216 130.727887,9.26933333 133.01416,9.26933333 C134.714209,9.26933333 135.359055,8.33066667 135.886656,7.568 L136.47288,8.03733333 Z" id="Shape"></path>
                    <path d="M137.176348,10.208 L137.176348,9.68 C138.290173,9.56266667 138.290173,9.328 138.290173,8.38933333 C138.290173,8.03733333 138.290173,7.68533333 138.290173,7.33333333 L138.290173,3.22666667 C138.290173,2.58133333 138.290173,1.936 138.231551,1.64266667 C138.172928,1.056 137.879817,0.997333333 137.117726,0.938666667 L137.117726,0.410666667 L141.279914,0.410666667 L141.279914,0.938666667 C140.459201,0.997333333 140.166089,1.056 140.048844,1.584 C139.990222,1.87733333 139.990222,2.64 139.990222,3.168 L139.990222,4.51733333 C140.810935,4.576 141.397159,4.576 142.217872,4.576 C143.038585,4.576 143.683431,4.576 144.504144,4.51733333 L144.504144,2.87466667 C144.504144,1.11466667 144.504144,1.056 143.15583,0.88 L143.15583,0.352 L147.376641,0.352 L147.376641,0.88 C146.262816,0.997333333 146.262816,1.056 146.262816,2.87466667 L146.262816,6.98133333 C146.262816,7.392 146.262816,8.56533333 146.321438,8.85866667 C146.38006,9.38666667 146.673172,9.44533333 147.376641,9.56266667 L147.376641,10.0906667 L143.15583,10.0906667 L143.15583,9.56266667 C144.15241,9.44533333 144.3869,9.44533333 144.504144,8.74133333 C144.504144,8.448 144.504144,8.096 144.504144,7.392 L144.504144,5.632 C143.742054,5.632 143.097208,5.57333333 142.276494,5.57333333 C141.455781,5.57333333 140.810935,5.57333333 139.9316,5.632 L139.9316,7.392 C139.9316,9.44533333 139.990222,9.44533333 141.221292,9.56266667 L141.221292,10.0906667 L137.176348,10.0906667 L137.176348,10.208 Z" id="Shape"></path>
                    <path d="M148.255976,10.208 L148.255976,9.68 C149.193934,9.56266667 149.428424,9.44533333 149.428424,8.448 L149.428424,7.216 L149.428424,3.28533333 C149.428424,1.232 149.428424,1.232 148.255976,1.056 L148.255976,0.528 L152.30092,0.528 L152.30092,1.056 C151.187095,1.17333333 151.187095,1.232 151.187095,3.28533333 L151.187095,7.216 C151.187095,7.568 151.187095,8.624 151.245717,8.91733333 C151.30434,9.504 151.597451,9.62133333 152.359542,9.68 L152.359542,10.208 L148.255976,10.208 Z" id="Shape"></path>
                    <path d="M123.341469,10.208 L123.341469,9.68 C124.279426,9.56266667 124.513916,9.44533333 124.513916,8.448 L124.513916,7.216 L124.513916,3.28533333 C124.513916,1.232 124.513916,1.232 123.341469,1.056 L123.341469,0.528 L127.386412,0.528 L127.386412,1.056 C126.213965,1.17333333 126.213965,1.232 126.213965,3.28533333 L126.213965,7.216 C126.213965,7.568 126.213965,8.624 126.272587,8.91733333 C126.331209,9.504 126.624321,9.62133333 127.386412,9.68 L127.386412,10.208 L123.341469,10.208 Z" id="Shape"></path>
                    <path d="M118.124078,10.208 L118.124078,9.68 C119.355147,9.62133333 119.355147,9.56266667 119.355147,7.744 L119.355147,2.87466667 L115.95505,10.384 L115.075714,10.384 L111.968729,2.75733333 L111.910106,8.50666667 C111.910106,9.44533333 112.027351,9.62133333 113.082554,9.73866667 L113.082554,10.2666667 L109.682456,10.2666667 L109.682456,9.73866667 C110.444547,9.68 110.796281,9.56266667 110.796281,8.91733333 C110.796281,8.68266667 110.854904,7.86133333 110.854904,7.33333333 L110.972148,3.22666667 C110.972148,2.93333333 110.972148,2.464 110.972148,2.112 C110.972148,1.17333333 110.796281,1.056 109.916946,1.056 L109.916946,0.528 L112.965309,0.528 L116.013672,7.92 L119.355147,0.528 L122.286266,0.528 L122.286266,1.11466667 C121.113818,1.17333333 121.113818,1.29066667 121.113818,2.816 L121.113818,6.80533333 C121.113818,7.45066667 121.113818,8.272 121.172441,8.8 C121.231063,9.504 121.524175,9.68 122.286266,9.73866667 L122.286266,10.2666667 L118.124078,10.2666667 L118.124078,10.208 Z" id="Shape"></path>
                    <path d="M171.763547,10.208 L171.763547,9.68 C172.58426,9.62133333 172.877372,9.62133333 172.994617,9.09333333 C173.111862,8.448 173.170484,2.69866667 173.170484,1.64266667 C172.642883,1.17333333 172.408393,1.056 171.763547,0.997333333 L171.763547,0.469333333 L174.694666,0.469333333 C175.515379,1.64266667 175.691246,1.87733333 177.098183,3.63733333 L179.794812,6.98133333 L179.794812,2.64 C179.794812,1.11466667 179.736189,0.997333333 178.212008,0.938666667 L178.212008,0.410666667 L182.022462,0.410666667 L182.022462,0.938666667 C180.967259,0.938666667 180.850014,1.17333333 180.850014,2.75733333 L180.73277,10.2666667 L180.146546,10.2666667 L179.26721,9.152 C178.798232,8.624 178.387875,8.03733333 177.918896,7.50933333 L174.049819,2.75733333 L174.049819,7.80266667 C174.049819,9.38666667 174.167064,9.44533333 175.632623,9.56266667 L175.632623,10.0906667 L171.763547,10.0906667 L171.763547,10.208 Z" id="Shape"></path>
                    <path d="M98.0166043,5.33866667 C98.0166043,8.68266667 95.7303318,10.4426667 93.1509475,10.4426667 C90.3370737,10.4426667 88.1094236,8.38933333 88.1094236,5.28 C88.1094236,2.64 89.8680947,0.234666667 93.0337028,0.234666667 C95.9648213,0.293333333 98.0166043,2.40533333 98.0166043,5.33866667 Z M93.1509475,9.56266667 C93.6785488,9.56266667 94.499262,9.26933333 95.0854857,8.33066667 C95.7889542,7.27466667 95.9061989,6.336 95.8475766,5.04533333 C95.7889542,3.81333333 95.43722,2.69866667 94.7337515,1.936 C94.4406397,1.584 93.7957936,1.11466667 92.9750804,1.11466667 C92.1543672,1.11466667 91.5681435,1.64266667 91.2750316,1.99466667 C90.5715632,2.75733333 90.2784513,3.872 90.2784513,5.104 C90.2784513,6.39466667 90.4543184,7.33333333 91.1577869,8.38933333 C91.8612553,9.328 92.6233462,9.56266667 93.1509475,9.56266667 Z" id="Shape"></path>
                    <path d="M99.2476741,8.448 C99.2476741,8.21333333 99.2476741,7.04 99.2476741,6.80533333 L99.2476741,3.40266667 C99.2476741,2.992 99.2476741,1.936 99.1890517,1.64266667 C99.071807,1.17333333 98.7786951,1.17333333 98.0752267,1.056 L98.0752267,0.528 L105.227156,0.528 L105.403023,2.93333333 L104.934044,2.93333333 C104.699555,1.408 104.054709,1.408 102.178793,1.408 C101.533947,1.408 101.358079,1.408 101.006345,1.46666667 L101.006345,4.81066667 L102.296037,4.81066667 C103.468485,4.81066667 103.761597,4.69333333 103.820219,3.63733333 L104.289198,3.63733333 L104.289198,6.864 L103.761597,6.864 C103.702974,5.74933333 103.116751,5.69066667 102.002926,5.69066667 L100.947723,5.69066667 L100.947723,8.448 C100.947723,9.504 101.12359,9.62133333 102.12017,9.68 L102.12017,10.208 L98.0752267,10.208 L98.0752267,9.68 C99.071807,9.62133333 99.1890517,9.504 99.2476741,8.448 Z" id="Shape"></path>
                    <path d="M21.807522,10.1493333 L21.807522,9.62133333 C22.7454799,9.504 22.9213471,9.38666667 22.9799694,8.38933333 L22.9799694,7.15733333 L22.9799694,3.22666667 C22.9799694,1.17333333 22.9799694,1.17333333 21.807522,0.997333333 L21.807522,0.469333333 L25.8524656,0.469333333 L25.8524656,0.997333333 C24.7386406,1.11466667 24.7386406,1.17333333 24.7386406,3.22666667 L24.7386406,7.15733333 C24.7386406,7.50933333 24.7386406,8.56533333 24.7972629,8.85866667 C24.8558853,9.44533333 25.1489972,9.56266667 25.911088,9.62133333 L25.911088,10.1493333 L21.807522,10.1493333 Z" id="Shape"></path>
                    <path d="M60.0879303,10.1493333 L60.0879303,9.62133333 C61.0258882,9.504 61.2017553,9.38666667 61.2603777,8.38933333 L61.2603777,7.15733333 L61.2603777,3.22666667 C61.2603777,1.17333333 61.2603777,1.17333333 60.0879303,0.997333333 L60.0879303,0.469333333 L64.1328739,0.469333333 L64.1328739,0.997333333 C63.0190488,1.11466667 63.0190488,1.17333333 63.0190488,3.22666667 L63.0190488,7.15733333 C63.0190488,7.50933333 63.0190488,8.56533333 63.0776712,8.85866667 C63.1362936,9.44533333 63.4294054,9.56266667 64.1914962,9.62133333 L64.1914962,10.1493333 L60.0879303,10.1493333 Z" id="Shape"></path>
                    <path d="M10.903761,10.1493333 L10.903761,9.62133333 C11.7244742,9.56266667 12.0175861,9.56266667 12.1348308,9.03466667 C12.2520755,8.38933333 12.3106979,2.64 12.3106979,1.584 C11.7830966,1.11466667 11.5486071,0.997333333 10.903761,0.938666667 L10.903761,0.410666667 L13.8348796,0.410666667 C14.6555927,1.584 14.8314599,1.81866667 16.2383968,3.57866667 L18.9350258,6.92266667 L18.9350258,2.58133333 C18.9350258,1.056 18.8764035,0.938666667 17.3522218,0.88 L17.3522218,0.352 L21.1626759,0.352 L21.1626759,0.88 C20.1074732,0.88 19.9902285,1.11466667 19.9902285,2.69866667 L19.8729838,10.208 L19.2867601,10.208 L18.4074245,9.09333333 C17.9384455,8.56533333 17.5280889,7.97866667 17.05911,7.45066667 L13.1900335,2.69866667 L13.1900335,7.744 C13.1900335,9.328 13.3072782,9.38666667 14.7728375,9.504 L14.7728375,10.032 L10.903761,10.032 L10.903761,10.1493333 Z" id="Shape"></path>
                    <path d="M52.936001,7.09866667 L53.40498,7.04 C53.9325813,8.624 54.8119169,9.504 56.2774761,9.504 C57.3326788,9.504 58.2120144,9.03466667 58.2120144,8.03733333 C58.2120144,6.92266667 57.1568117,6.512 56.6878327,6.27733333 C56.2774761,6.10133333 55.8671196,5.984 55.5153853,5.86666667 C54.6946721,5.57333333 53.2291129,4.98666667 53.2291129,3.05066667 C53.2291129,1.232 54.6360498,0.234666667 56.3360985,0.234666667 C56.9809446,0.234666667 57.7430354,0.352 58.5637486,0.88 L59.1499723,0.469333333 L59.4430842,3.344 L58.9741052,3.46133333 C58.7982381,2.816 58.6809934,2.52266667 58.2706368,1.99466667 C57.8016578,1.408 57.1568117,1.11466667 56.3947209,1.11466667 C55.3395182,1.11466667 54.7532945,1.584 54.7532945,2.40533333 C54.7532945,3.57866667 55.8671196,3.93066667 56.9809446,4.28266667 C57.5085459,4.45866667 57.9775249,4.63466667 58.3878815,4.86933333 C59.1499723,5.33866667 59.7948184,6.16 59.7948184,7.33333333 C59.7948184,9.03466667 58.4465039,10.384 56.3947209,10.384 C55.0464064,10.384 54.2843155,9.856 53.8739589,9.62133333 L53.0532457,9.03466667 L52.936001,7.09866667 Z" id="Shape"></path>
                    <path d="M67.1226148,10.1493333 L67.1226148,9.73866667 C68.0019503,9.73866667 68.2364398,9.38666667 68.2364398,8.624 L68.2364398,1.46666667 L67.00537,1.46666667 C65.891545,1.46666667 65.1880765,1.408 65.0708318,3.168 L64.5432305,3.168 L64.6018528,0.469333333 L73.4538308,0.469333333 L73.5124532,3.168 L72.9848519,3.168 C72.9262295,1.408 72.1641387,1.46666667 71.0503136,1.46666667 L69.8192438,1.46666667 L69.8192438,8.624 C69.8192438,9.38666667 70.0537333,9.73866667 70.9330689,9.73866667 L70.9330689,10.1493333 L67.1226148,10.1493333 Z" id="Shape"></path>
                    <path d="M4.39667782,0.410666667 L4.39667782,0.938666667 C3.10698566,1.056 3.10698566,1.056 3.10698566,3.168 L3.10698566,5.456 C3.10698566,6.62933333 3.10698566,7.68533333 3.75183174,8.56533333 C4.22081071,9.26933333 5.10014628,9.38666667 5.51050287,9.38666667 C6.91743978,9.38666667 7.6795306,8.68266667 7.97264245,7.50933333 C8.26575431,6.57066667 8.26575431,4.86933333 8.26575431,3.75466667 C8.26575431,3.40266667 8.26575431,2.22933333 8.26575431,1.936 C8.20713194,1.056 7.73815297,0.997333333 6.91743978,0.938666667 L6.91743978,0.410666667 L10.6106491,0.410666667 L10.6106491,0.938666667 C9.67269121,0.938666667 9.4968241,1.11466667 9.43820173,2.112 C9.43820173,2.34666667 9.32095699,5.04533333 9.32095699,5.456 C9.32095699,6.21866667 9.26233462,6.92266667 9.0864675,7.62666667 C8.44162142,10.2666667 5.8622371,10.384 5.21739102,10.384 C4.68978968,10.384 3.57596463,10.3253333 2.69662907,9.68 C1.17244742,8.74133333 1.17244742,7.27466667 1.17244742,5.69066667 L1.17244742,3.46133333 C1.17244742,2.40533333 1.17244742,1.936 1.11382505,1.70133333 C1.05520268,1.11466667 0.703468452,0.997333333 0,0.938666667 L0,0.410666667 L4.39667782,0.410666667 Z" id="Shape"></path>
                    <path d="M36.1113805,0.410666667 L36.1113805,0.938666667 C35.1734226,1.056 35.0561779,1.34933333 34.2354647,3.28533333 L31.3043461,10.3253333 L30.7767448,10.3253333 L28.1387381,3.168 C27.493892,1.34933333 27.3766473,1.11466667 26.4386893,0.938666667 L26.4386893,0.410666667 L31.0698566,0.410666667 L31.0698566,0.938666667 C30.3077658,0.938666667 29.7801645,0.997333333 29.7801645,1.584 C29.7801645,1.87733333 29.8387868,2.112 30.1318987,2.93333333 L31.8319474,7.86133333 L33.8251081,2.75733333 C33.9423528,2.40533333 34.1182199,1.99466667 34.1182199,1.70133333 C34.1182199,0.997333333 33.4147515,0.997333333 32.8285278,0.938666667 L32.8285278,0.410666667 L36.1113805,0.410666667 Z" id="Shape"></path>
                    <path d="M76.7366836,10.1493333 L76.7366836,9.62133333 C77.4987744,9.56266667 77.7918863,9.504 77.9677534,9.328 C78.2022429,9.09333333 78.2022429,8.85866667 78.2022429,7.80266667 L78.2022429,6.10133333 L75.6228586,2.112 C74.9193901,1.056 74.9193901,1.056 73.9814322,0.997333333 L73.9814322,0.469333333 L79.0229561,0.469333333 L79.0229561,0.997333333 C78.0263758,0.997333333 77.5573968,1.056 77.5573968,1.52533333 C77.5573968,1.76 77.7332639,2.112 77.9677534,2.52266667 L79.4333127,4.98666667 L80.7816272,2.58133333 C81.0161167,2.112 81.1919838,1.81866667 81.1919838,1.584 C81.1919838,1.11466667 80.7816272,1.11466667 80.1367811,1.056 L80.1367811,0.528 L83.9472353,0.528 L83.9472353,1.056 C82.9506549,1.056 82.6575431,1.34933333 81.543718,3.168 L80.0195364,5.69066667 L80.0195364,7.62666667 C80.0195364,9.38666667 80.0195364,9.504 81.4850957,9.62133333 L81.4850957,10.1493333 L76.7366836,10.1493333 Z" id="Shape"></path>
                    <path d="M36.1113805,10.1493333 L36.1113805,9.62133333 C37.1079608,9.504 37.2252056,9.44533333 37.2838279,8.38933333 C37.2838279,8.15466667 37.2838279,6.98133333 37.2838279,6.74666667 L37.2838279,3.344 C37.2838279,2.93333333 37.2838279,1.87733333 37.2252056,1.584 C37.1079608,1.11466667 36.814849,1.11466667 36.1113805,0.997333333 L36.1113805,0.469333333 L43.0288203,0.469333333 L43.0874427,2.75733333 L42.6184637,2.75733333 C42.3839742,1.408 41.7977505,1.29066667 40.1563241,1.29066667 L38.9838767,1.29066667 L38.9838767,4.69333333 L40.0390794,4.69333333 C41.2701492,4.69333333 41.4460163,4.4 41.563261,3.52 L42.03224,3.52 L42.03224,6.74666667 L41.563261,6.74666667 C41.563261,5.632 41.2115268,5.57333333 40.0390794,5.57333333 L38.9838767,5.57333333 L38.9838767,8.272 C38.9838767,8.91733333 39.2183662,9.26933333 40.5666807,9.26933333 C41.9736176,9.26933333 42.9701979,9.328 43.2633098,7.62666667 L43.7322888,7.62666667 C43.6736664,8.272 43.4977993,9.44533333 43.4977993,10.1493333 L36.1113805,10.1493333 Z" id="Shape"></path>
                    <path d="M162.208101,5.92533333 L162.208101,6.45333333 C161.328765,6.512 161.328765,6.74666667 161.328765,8.624 L161.328765,9.328 C160.566674,9.79733333 159.511471,10.4426667 157.576933,10.4426667 C154.235458,10.4426667 152.652654,7.92 152.652654,5.33866667 C152.652654,2.22933333 154.763059,0.176 157.401066,0.176 C159.042492,0.176 160.039073,0.821333333 160.801164,1.29066667 L161.328765,0.704 L161.387387,3.75466667 L160.977031,3.81333333 C160.801164,3.22666667 160.508052,2.58133333 159.745961,1.81866667 C159.452849,1.52533333 158.808003,1.11466667 157.811423,1.11466667 C156.111374,1.11466667 154.704437,2.52266667 154.704437,5.33866667 C154.704437,7.568 155.818262,9.504 157.694178,9.504 C158.749381,9.504 159.335604,8.74133333 159.394227,8.68266667 C159.570094,8.448 159.628716,8.21333333 159.570094,7.744 C159.511471,6.512 159.335604,6.45333333 158.280402,6.39466667 L158.280402,5.86666667 L162.208101,5.86666667 L162.208101,5.92533333 Z" id="Shape"></path>
                    <path d="M47.1323863,4.928 C47.3668758,4.98666667 47.7772324,5.04533333 48.0703442,5.04533333 C49.1841693,5.04533333 50.0048825,4.16533333 50.0635048,3.40266667 C50.1221272,2.288 49.5359035,1.29066667 47.7772324,1.29066667 C47.5427429,1.29066667 47.3668758,1.29066667 47.1910086,1.34933333 L47.1910086,4.928 L47.1323863,4.928 Z M47.1323863,7.04 C47.1323863,9.26933333 47.1323863,9.56266667 48.3048337,9.62133333 L48.3048337,10.1493333 L44.2598901,10.1493333 L44.2598901,9.62133333 C45.3150928,9.56266667 45.4323375,9.38666667 45.4323375,8.33066667 C45.4323375,7.92 45.4323375,7.45066667 45.4323375,7.09866667 L45.4323375,3.57866667 C45.4323375,2.40533333 45.4323375,1.99466667 45.3737151,1.70133333 C45.3150928,1.17333333 45.0219809,1.056 44.2598901,0.997333333 L44.2598901,0.469333333 L48.6565679,0.469333333 C51.0600851,0.469333333 51.822176,1.584 51.822176,2.93333333 C51.822176,3.872 51.2359522,5.104 49.8876377,5.51466667 L51.5876865,8.50666667 C52.2325325,9.68 52.5256444,9.91466667 53.3463576,10.032 L53.3463576,10.384 C53.1118681,10.384 52.936001,10.384 52.7015115,10.384 C50.884218,10.384 50.1221272,9.73866667 49.3600364,8.096 L48.832435,6.98133333 C48.2462113,5.74933333 48.0703442,5.808 47.1323863,5.808 L47.1323863,7.04 Z" id="Shape"></path>
                </g>
                <polygon id="Shape" fill="#FFCF01" points="15.5345422 18.1041667 9.21638886 9.51041667 9.21638886 15.7552083 11.7668361 15.7552083 11.7668361 21.9427083 0 21.9427083 0 15.7552083 2.3765531 15.7552083 2.3765531 6.13020833 0 6.13020833 0 2.5442611e-16 9.21638886 2.5442611e-16 15.5345422 8.65104167 21.9106603 0 31.1270492 0 31.1270492 6.1875 28.7504961 6.1875 28.7504961 15.8125 31.1270492 15.8125 31.1270492 22 19.4181778 22 19.4181778 15.7552083 21.968625 15.7552083 21.968625 9.51041667"></polygon>
            </g>
        </g>
    </g>
</svg>