<?xml version="1.0" encoding="UTF-8"?>
<svg enable-background="new 0 0 94.1 100" version="1.1" viewBox="0 0 94.1 100" xml:space="preserve" xmlns="http://www.w3.org/2000/svg" width="94" height="100">
<style type="text/css">
	.st0{fill:#002D62;}
	.st1{fill:#FFCF01;}
	.st2{fill:#FFFFFF;}
</style>
	<rect class="st0" width="94.1" height="100"/>
	<path class="st1" d="M47,53.1L33.3,34.4V48h5.5v13.5H13.5V48h5.2V27h-5.1V13.5h19.9l13.7,19l13.7-19h19.9V27h-5.1v21h5.1v13.5H55.3   V48h5.5V34.3L47,53.1z"/>
	<path class="st2" d="m67.1 86.3v-0.5c0.6-0.1 1.1-0.1 1.1-0.6 0-0.2-0.1-0.4-0.1-0.6l-0.2-0.9h-3.2l-0.2 0.8c-0.1 0.2-0.1 0.4-0.1 0.6 0 0.6 0.7 0.7 1.2 0.7v0.5h-3.7v-0.5c0.9-0.1 1.2-0.2 1.6-1.2l2.4-6.7-0.1-0.2c1.1-0.4 1.4-0.5 1.8-0.8 0.2 0.6 0.2 0.7 0.4 1.3l2 6.2c0.4 1.1 0.5 1.4 1.5 1.4v0.5h-4.4zm-0.8-7.3l-1.3 3.7h2.6l-1.3-3.7zm-28 5.2c-0.4 0.6-1.4 2.2-3.9 2.2-2.7 0-4.5-2-4.5-4.7 0-2.4 1.5-4.8 4.5-4.8 1.6 0 2.4 0.7 3 1.1l0.6-0.6 0.1 2.7-0.4 0.1c-0.2-0.5-0.4-0.9-1-1.6-0.2-0.3-0.9-0.9-1.9-0.9-1.6 0-2.9 1.3-2.9 3.7 0 2 1.1 3.9 3.2 3.9 1.6 0 2.2-0.9 2.6-1.6l0.6 0.5zm0.7 2.1v-0.5c1-0.1 1.1-0.3 1.1-1.2v-0.9-3.8c0-0.6 0-1.2-0.1-1.4-0.1-0.6-0.3-0.6-1-0.7v-0.5h3.9v0.5c-0.7 0.1-1.1 0.1-1.1 0.6-0.1 0.3-0.1 0.9-0.1 1.5v1.2c0.8 0.1 1.3 0.1 2.1 0.1 0.7 0 1.4 0 2.1-0.1v-1.6c0-1.7 0-1.7-1.2-1.8v-0.5h3.9v0.5c-1.1 0.1-1.1 0.1-1.1 1.9v3.8c0 0.4 0 1.5 0.1 1.7 0.1 0.5 0.3 0.6 1 0.6v0.5h-3.9v-0.5c0.9-0.1 1.1-0.1 1.2-0.7v-1.2-1.7c-0.7 0-1.3-0.1-2.1-0.1s-1.4 0-2.2 0.1v1.7c0 1.9 0.1 1.9 1.2 2v0.5h-3.8zm10.3 0v-0.5c0.9-0.1 1.1-0.2 1.1-1.2v-4.8c0-1.9 0-1.9-1.1-2.1v-0.5h3.7v0.5c-1 0.2-1 0.2-1 2.1v3.7c0 0.3 0 1.3 0.1 1.6 0.1 0.6 0.3 0.7 1 0.7v0.5h-3.8zm-23.1 0v-0.5c0.9-0.1 1.1-0.2 1.1-1.2v-4.8c0-1.9 0-1.9-1.1-2.1v-0.5h3.7v0.5c-1.1 0.1-1.1 0.1-1.1 2.1v3.7c0 0.3 0 1.3 0.1 1.6 0.1 0.6 0.3 0.7 1 0.7v0.5h-3.7zm-4.9 0v-0.5c1.1-0.1 1.1-0.1 1.1-1.8v-4.5l-3.1 7h-0.8l-2.9-7-0.1 5.3c0 0.9 0.1 1.1 1.1 1.1v0.5h-3.1v-0.5c0.7-0.1 1-0.1 1.1-0.7 0-0.2 0.1-1 0.1-1.5l0.1-3.8v-1.1c0-0.9-0.2-0.9-1-1v-0.5h2.9l2.8 6.8 3.1-6.8h2.7v0.6c-1.1 0.1-1.1 0.2-1.1 1.6v3.5c0 0.6 0 1.4 0.1 1.9 0.1 0.7 0.3 0.8 1 0.9v0.5h-4zm49.8 0v-0.5c0.7-0.1 1-0.1 1.1-0.6 0.1-0.6 0.2-6 0.2-6.9-0.5-0.4-0.7-0.6-1.3-0.6v-0.5h2.7c0.7 1.1 0.9 1.3 2.2 3l2.5 3.1v-4c0-1.4-0.1-1.5-1.5-1.6v-0.5h3.5v0.5c-1 0-1.1 0.2-1.1 1.7l-0.1 7h-0.6l-0.8-1-1.2-1.5-3.5-4.4v4.7c0 1.4 0.1 1.5 1.5 1.7v0.5l-3.6-0.1zm-8.9-4v0.5c-0.8 0.1-0.8 0.3-0.8 2v0.7c-0.7 0.4-1.7 1.1-3.5 1.1-3.1 0-4.6-2.4-4.6-4.7 0-2.9 1.9-4.8 4.4-4.8 1.6 0 2.4 0.6 3.2 1l0.5-0.6 0.1 2.8-0.4 0.1c-0.2-0.6-0.4-1.2-1.1-1.8-0.3-0.3-0.9-0.7-1.8-0.7-1.6 0-2.9 1.3-2.9 3.9 0 2.1 1 3.9 2.8 3.9 1 0 1.5-0.7 1.6-0.7 0.2-0.2 0.2-0.4 0.2-0.9-0.1-1.1-0.2-1.2-1.2-1.3v-0.5h3.5z"/>
	<path class="st2" d="m75.8 71.4c0 2.1-1.4 3.2-3 3.2-1.7 0-3.1-1.2-3.1-3.2 0-1.6 1.1-3.1 3-3.1s3.1 1.3 3.1 3.1zm-3 2.6c0.3 0 0.8-0.2 1.2-0.7 0.4-0.6 0.5-1.2 0.5-2 0-0.7-0.2-1.4-0.7-1.9-0.2-0.2-0.6-0.5-1.1-0.5s-0.9 0.3-1.1 0.5c-0.4 0.5-0.6 1.1-0.6 1.9 0 0.7 0.1 1.4 0.6 2 0.4 0.5 0.9 0.7 1.2 0.7zm3.3 0.1v0.3h2.5v-0.3c-0.6-0.1-0.7-0.1-0.7-0.7v-1.7h0.7c0.7 0 1 0.1 1.1 0.7h0.3v-2h-0.3c-0.1 0.6-0.2 0.7-0.9 0.7h-0.8v-2.1c0.2 0 0.3-0.1 0.7-0.1 1.2 0 1.6 0 1.7 0.9h0.3l-0.1-1.4h-4.4v0.3c0.4 0.1 0.6 0.1 0.7 0.4 0.1 0.2 0.1 0.9 0.1 1.1v2.1 1c-0.2 0.7-0.3 0.7-0.9 0.8zm-48.8 0.2v-0.3c0.6-0.1 0.7-0.1 0.7-0.7v-3.1c0-1.2 0-1.3-0.7-1.4v-0.3h2.5v0.3c-0.7 0.1-0.7 0.1-0.7 1.4v2.4 1.1c0.1 0.4 0.2 0.4 0.7 0.5v0.3l-2.5-0.2zm24.7 0v-0.3c0.6-0.1 0.7-0.1 0.7-0.7v-3.1c0-1.2 0-1.3-0.7-1.4v-0.3h2.5v0.3c-0.7 0.1-0.7 0.1-0.7 1.4v2.4 1.1c0.1 0.4 0.2 0.4 0.7 0.5v0.3l-2.5-0.2zm-31.6 0v-0.3c0.5 0 0.7-0.1 0.7-0.4 0.1-0.4 0.1-3.9 0.1-4.5-0.3-0.3-0.4-0.4-0.9-0.4v-0.3h1.8c0.5 0.7 0.6 0.9 1.5 2l1.7 2.1v-2.7c0-0.9-0.1-1-1-1.1v-0.3h2.4v0.3c-0.6 0-0.7 0.1-0.7 1.1l-0.1 4.6h-0.4l-0.5-0.6c-0.2-0.3-0.6-0.7-0.8-1l-2.4-2.9v3.1c0 0.9 0.1 1 1 1.1v0.3l-2.4-0.1zm27-1.8l0.3-0.1c0.3 1 0.9 1.5 1.8 1.5 0.6 0 1.2-0.2 1.2-0.9s-0.6-0.9-0.9-1.1c-0.2-0.1-0.5-0.2-0.7-0.2-0.5-0.2-1.4-0.6-1.4-1.7s0.9-1.7 1.9-1.7c0.4 0 0.9 0.1 1.4 0.4l0.4-0.2 0.2 1.8-0.3 0.1c-0.1-0.4-0.2-0.6-0.4-0.9-0.3-0.4-0.7-0.6-1.2-0.6-0.6 0-1 0.3-1 0.7 0 0.7 0.7 0.9 1.4 1.2 0.3 0.1 0.6 0.2 0.9 0.4 0.5 0.2 0.9 0.8 0.9 1.5 0 1.1-0.9 1.9-2.1 1.9-0.8 0-1.3-0.3-1.6-0.5l-0.5-0.4-0.3-1.2zm9.2 1.8v-0.2c0.6 0 0.7-0.2 0.7-0.7v-4.4h-0.7c-0.7 0-1.1 0-1.2 1.1h-0.3l0.1-1.7h5.4l0.1 1.7h-0.3c-0.2-1.1-0.6-1.1-1.3-1.1h-0.7v4.4c0 0.5 0.1 0.7 0.7 0.7v0.2h-2.5zm-40.5-5.9v0.3c-0.8 0.1-0.8 0.1-0.8 1.4v1.4c0 0.7 0 1.4 0.4 1.9 0.3 0.4 0.8 0.5 1.1 0.5 0.9 0 1.3-0.4 1.6-1.1 0.2-0.6 0.2-1.6 0.2-2.3v-1.1c-0.1-0.6-0.3-0.6-0.9-0.6v-0.3h2.3v0.3c-0.6 0-0.7 0.1-0.7 0.7 0 0.1-0.1 1.8-0.1 2.1 0 0.4-0.1 0.9-0.1 1.3-0.4 1.6-2 1.7-2.4 1.7-0.3 0-1-0.1-1.6-0.4-0.9-0.6-0.9-1.5-0.9-2.5v-1.4-1.1c-0.1-0.4-0.2-0.4-0.7-0.5v-0.3h2.6zm20.2 0v0.3c-0.6 0.1-0.6 0.2-1.1 1.4l-1.8 4.4h-0.3l-1.6-4.4c-0.5-1.1-0.5-1.2-1.1-1.4v-0.3h2.8v0.3c-0.5 0-0.8 0.1-0.8 0.4 0 0.2 0.1 0.3 0.2 0.8l1.1 3 1.2-3.1c0.1-0.2 0.2-0.5 0.2-0.6 0-0.4-0.4-0.4-0.8-0.4v-0.3l2-0.1zm26.5 5.9v-0.3c0.4-0.1 0.6-0.1 0.7-0.2s0.1-0.3 0.1-0.9v-1.1l-1.6-2.4c-0.4-0.6-0.4-0.7-1-0.7v-0.3h3.1v0.3c-0.6 0-0.9 0.1-0.9 0.3s0.1 0.4 0.2 0.6l0.9 1.5 0.9-1.5c0.1-0.3 0.2-0.5 0.2-0.6 0-0.3-0.2-0.3-0.7-0.3v-0.3h2.3v0.3c-0.6 0-0.7 0.2-1.4 1.3l-0.9 1.6v1.2c0 1.1 0 1.2 0.9 1.2v0.3h-2.8zm-21.7 0c0-0.4 0.1-1.1 0.1-1.6h-0.2c-0.2 1.1-0.8 1-1.7 1-0.8 0-0.9-0.2-0.9-0.6v-1.7h0.6c0.7 0 0.9 0.1 0.9 0.7h0.3v-2h-0.3c-0.1 0.6-0.2 0.7-0.9 0.7h-0.6v-2.1h0.7c1 0 1.4 0.1 1.5 0.9h0.2l-0.1-1.4h-4.2v0.3c0.4 0.1 0.6 0.1 0.7 0.4 0.1 0.2 0.1 0.9 0.1 1.1v2.1 1c0 0.6-0.1 0.7-0.7 0.7v0.3h4.5v0.2zm2.5-3.1c0.2 0.1 0.4 0.1 0.6 0.1 0.7 0 1.2-0.6 1.2-1 0.1-0.7-0.3-1.3-1.4-1.3-0.1 0-0.2 0-0.4 0.1v2.1zm0 1.3c0 1.4 0 1.6 0.7 1.6v0.3h-2.5v-0.4c0.6-0.1 0.7-0.1 0.7-0.8v-0.7-2.2c0-0.7 0-1-0.1-1.2-0.1-0.3-0.2-0.4-0.7-0.4v-0.3h2.7c1.5 0 1.9 0.7 1.9 1.6 0 0.6-0.4 1.3-1.2 1.6l1.1 1.9c0.4 0.7 0.6 0.9 1.1 0.9v0.2h-0.4c-1.1 0-1.6-0.4-2.1-1.4l-0.3-0.7c-0.4-0.7-0.5-0.7-1.1-0.7l0.2 0.7z"/>
</svg>
