<?xml version="1.0" encoding="UTF-8"?>
<svg width="242px" height="20px" viewBox="0 0 242 20" version="1.1" xmlns="http://www.w3.org/2000/svg" xmlns:xlink="http://www.w3.org/1999/xlink">
    <!-- Generator: Sketch 50.2 (55047) - http://www.bohemiancoding.com/sketch -->
    <title>Signature_Left_White</title>
    <desc>Created with Sketch.</desc>
    <defs></defs>
    <g id="Symbols" stroke="none" stroke-width="1" fill="none" fill-rule="evenodd">
        <g id="footer-v2" transform="translate(-711.000000, -43.000000)" fill="#FFFFFF" fill-rule="nonzero">
            <g id="Signature_Left_White" transform="translate(711.000000, 43.000000)">
                <path d="M234.474255,15.2173913 L234.474255,7.39130435 L239.766938,16.0869565 L240.271003,16.0869565 L240.271003,6.52173913 L241.111111,5.65217391 L238.506775,5.65217391 L239.346883,6.52173913 L239.346883,13.1304348 L234.810298,5.56521739 L232.710027,5.56521739 L233.550136,6.43478261 L233.550136,15.0434783 L232.710027,15.9130435 L235.314363,15.9130435 L234.474255,15.2173913 Z M226.073171,15.5652174 C224.056911,15.5652174 223.384824,13.0434783 223.384824,10.8695652 C223.384824,8.69565217 224.056911,6.17391304 226.073171,6.17391304 C228.089431,6.17391304 228.845528,8.69565217 228.845528,10.8695652 C228.845528,13.0434783 228.173442,15.5652174 226.073171,15.5652174 Z M222.04065,10.8695652 C222.04065,13.5652174 223.468835,16.3478261 226.073171,16.3478261 C228.677507,16.3478261 230.105691,13.5652174 230.105691,10.8695652 C230.105691,8.17391304 228.677507,5.39130435 226.073171,5.39130435 C223.552846,5.47826087 222.04065,8.26086957 222.04065,10.8695652 Z M216.915989,15.3043478 L216.915989,6.43478261 L218.848238,6.43478261 L219.940379,7.56521739 L219.940379,5.65217391 L212.799458,5.65217391 L212.799458,7.56521739 L213.891599,6.43478261 L215.823848,6.43478261 L215.823848,15.3043478 L215.067751,16.173913 L217.756098,16.173913 L216.915989,15.3043478 Z M208.850949,11.3913043 L208.850949,14.7826087 C208.598916,15.0434783 208.094851,15.5652174 207.170732,15.5652174 C204.902439,15.5652174 203.810298,13.2173913 203.810298,10.9565217 C203.810298,8.69565217 205.238482,6.34782609 207.170732,6.34782609 C207.674797,6.34782609 208.094851,6.43478261 208.430894,6.86956522 L209.523035,8 L209.523035,6.08695652 C208.934959,5.73913043 208.346883,5.47826087 207.170732,5.47826087 C204.398374,5.47826087 202.466125,8 202.466125,10.8695652 C202.466125,13.6521739 204.398374,16.2608696 207.170732,16.2608696 C208.766938,16.2608696 209.355014,15.9130435 209.943089,15.4782609 L209.943089,11.3913043 L210.699187,10.5217391 L208.01084,10.5217391 L208.850949,11.3913043 Z M193.897019,15.2173913 L193.897019,7.39130435 L199.189702,16.0869565 L199.609756,16.0869565 L199.609756,6.52173913 L200.449864,5.65217391 L197.845528,5.65217391 L198.685637,6.52173913 L198.685637,13.1304348 L194.149051,5.56521739 L192.04878,5.56521739 L192.888889,6.43478261 L192.888889,15.0434783 L192.04878,15.9130435 L194.653117,15.9130435 L193.897019,15.2173913 Z M186.588076,5.65217391 L187.428184,6.52173913 L187.428184,15.3043478 L186.588076,16.173913 L189.276423,16.173913 L188.436314,15.3043478 L188.436314,6.52173913 L189.276423,5.65217391 L186.588076,5.65217391 Z M177.682927,10.8695652 L181.96748,10.8695652 L181.96748,15.3043478 L181.127371,16.173913 L183.815718,16.173913 L182.97561,15.3043478 L182.97561,6.52173913 L183.815718,5.65217391 L181.127371,5.65217391 L181.96748,6.52173913 L181.96748,10.0869565 L177.682927,10.0869565 L177.682927,6.52173913 L178.523035,5.65217391 L175.834688,5.65217391 L176.590786,6.52173913 L176.590786,15.3043478 L175.834688,16.173913 L178.523035,16.173913 L177.682927,15.3043478 L177.682927,10.8695652 Z M173.062331,13.2173913 C173.062331,12.173913 172.558266,11.5652174 172.138211,11.2173913 L170.121951,9.65217391 C169.365854,9.13043478 169.02981,8.43478261 169.02981,7.82608696 C169.02981,6.69565217 169.95393,6.34782609 170.457995,6.34782609 C170.710027,6.34782609 170.96206,6.43478261 171.130081,6.43478261 L172.054201,7.39130435 L172.97832,5.91304348 L170.96206,5.56521739 C170.794038,5.56521739 170.710027,5.47826087 170.457995,5.47826087 C168.693767,5.47826087 167.853659,7.04347826 167.853659,8.08695652 C167.853659,8.86956522 168.273713,9.82608696 169.113821,10.4347826 L171.214092,12 C171.802168,12.4347826 171.97019,13.0434783 171.97019,13.5652174 C171.97019,14.4347826 171.466125,15.3913043 170.289973,15.3913043 C170.03794,15.3913043 169.785908,15.3043478 169.617886,15.2173913 L168.693767,14.0869565 L167.853659,15.7391304 L169.785908,16.0869565 C169.785908,16.0869565 170.121951,16.173913 170.373984,16.173913 C171.466125,16.2608696 173.062331,15.2173913 173.062331,13.2173913 Z M161.804878,8 L163.233062,12.3478261 L160.376694,12.3478261 L161.804878,8 Z M159.368564,15.3043478 L160.124661,13.1304348 L163.485095,13.1304348 L164.157182,15.3043478 L163.401084,16.0869565 L166.257453,16.0869565 L165.417344,15.2173913 L162.224932,5.65217391 L161.720867,5.65217391 L158.528455,15.2173913 L157.688347,16.0869565 L160.124661,16.0869565 L159.368564,15.3043478 Z M148.615176,16.0869565 L150.96748,8.52173913 L153.235772,16.0869565 L153.739837,16.0869565 L156.680217,6.52173913 L157.520325,5.65217391 L155.084011,5.65217391 L155.840108,6.43478261 L153.739837,13.6521739 L151.639566,6.43478261 L152.395664,5.65217391 L149.539295,5.65217391 L150.379404,6.52173913 L150.547425,7.2173913 L148.615176,13.7391304 L146.514905,6.52173913 L147.271003,5.73913043 L144.414634,5.73913043 L145.254743,6.60869565 L148.111111,16.173913 L148.615176,16.173913 L148.615176,16.0869565 Z M132.485095,9.82608696 L132.065041,10.173913 L132.149051,10.3478261 L133.325203,10.3478261 C133.157182,11.6521739 132.98916,12.7826087 132.737127,14.6956522 C132.317073,17.4782609 132.065041,18.4347826 131.728997,18.6086957 C131.644986,18.6956522 131.476965,18.7826087 131.392954,18.7826087 C131.224932,18.7826087 130.9729,18.6086957 130.804878,18.5217391 C130.636856,18.4347826 130.468835,18.5217391 130.384824,18.6086957 C130.300813,18.7826087 130.132791,18.9565217 130.132791,19.1304348 C130.132791,19.3913043 130.468835,19.5652174 130.720867,19.5652174 C130.9729,19.5652174 131.644986,19.3043478 132.317073,18.5217391 C132.821138,17.9130435 133.493225,16.5217391 133.99729,13.1304348 C134.081301,12.5217391 134.249322,11.9130435 134.417344,10.2608696 L135.845528,10.0869565 L136.181572,9.73913043 L134.501355,9.73913043 C134.921409,7.04347826 135.257453,6.17391304 135.929539,6.17391304 C136.349593,6.17391304 136.685637,6.34782609 137.02168,6.69565217 C137.105691,6.7826087 137.273713,6.7826087 137.441734,6.69565217 C137.525745,6.60869565 137.693767,6.34782609 137.693767,6.17391304 C137.693767,5.91304348 137.357724,5.56521739 136.853659,5.56521739 C136.01355,5.56521739 135.173442,6.08695652 134.585366,6.7826087 C133.99729,7.47826087 133.661247,8.60869565 133.493225,9.73913043 L132.485095,9.73913043 L132.485095,9.82608696 Z M126.100271,13.7391304 C126.100271,11.5652174 127.192412,10.3478261 127.612466,10.173913 C127.780488,10.0869565 127.948509,10.0869565 128.116531,10.0869565 C128.788618,10.0869565 129.208672,10.6086957 129.208672,11.7391304 C129.208672,13.6521739 128.284553,15.3913043 127.696477,15.5652174 C127.612466,15.6521739 127.360434,15.6521739 127.276423,15.6521739 C126.436314,15.6521739 126.100271,14.7826087 126.100271,13.7391304 Z M128.536585,9.47826087 C128.200542,9.47826087 127.612466,9.65217391 127.02439,10 C126.01626,10.6086957 125.00813,12 125.00813,14 C125.00813,15.0434783 125.512195,16.173913 126.772358,16.173913 C127.360434,16.173913 128.284553,15.7391304 128.872629,15.2173913 C129.796748,14.3478261 130.384824,12.7826087 130.384824,11.4782609 C130.300813,10.3478261 129.712737,9.47826087 128.536585,9.47826087 Z M111.398374,6.52173913 L113.918699,11.3043478 L113.918699,15.3043478 L113.078591,16.173913 L115.766938,16.173913 L114.926829,15.3043478 L114.926829,11.3043478 L117.531165,6.52173913 L118.371274,5.65217391 L115.850949,5.65217391 L116.607046,6.43478261 L114.506775,10.3478261 L112.490515,6.43478261 L113.246612,5.65217391 L110.390244,5.65217391 L111.398374,6.52173913 Z M106.105691,15.3043478 L106.105691,6.43478261 L108.03794,6.43478261 L109.130081,7.56521739 L109.130081,5.65217391 L101.98916,5.65217391 L101.98916,7.56521739 L103.081301,6.43478261 L105.01355,6.43478261 L105.01355,15.3043478 L104.257453,16.173913 L106.945799,16.173913 L106.105691,15.3043478 Z M96.9485095,5.65217391 L97.7886179,6.52173913 L97.7886179,15.3043478 L96.9485095,16.173913 L99.6368564,16.173913 L98.796748,15.3043478 L98.796748,6.52173913 L99.6368564,5.65217391 L96.9485095,5.65217391 Z M94.0081301,13.2173913 C94.0081301,12.173913 93.504065,11.5652174 93.0840108,11.2173913 L91.0677507,9.65217391 C90.3116531,9.13043478 89.9756098,8.43478261 89.9756098,7.82608696 C89.9756098,6.69565217 90.899729,6.34782609 91.403794,6.34782609 C91.6558266,6.34782609 91.9078591,6.43478261 92.0758808,6.43478261 L93,7.39130435 L93.9241192,5.91304348 L91.9078591,5.56521739 C91.7398374,5.56521739 91.6558266,5.47826087 91.403794,5.47826087 C89.6395664,5.47826087 88.799458,7.04347826 88.799458,8.08695652 C88.799458,8.86956522 89.2195122,9.82608696 90.0596206,10.4347826 L92.1598916,12 C92.7479675,12.4347826 92.9159892,13.0434783 92.9159892,13.5652174 C92.9159892,14.4347826 92.4119241,15.3913043 91.2357724,15.3913043 C90.9837398,15.3913043 90.7317073,15.3043478 90.5636856,15.2173913 L89.6395664,14.0869565 L88.799458,15.7391304 L90.7317073,16.0869565 C90.7317073,16.0869565 91.0677507,16.173913 91.3197832,16.173913 C92.4119241,16.2608696 94.0081301,15.2173913 94.0081301,13.2173913 Z M81.0704607,6.43478261 L82.3306233,6.43478261 C83.4227642,6.43478261 84.2628726,7.39130435 84.2628726,8.52173913 C84.2628726,9.56521739 83.4227642,10.4347826 82.3306233,10.4347826 L81.0704607,10.4347826 L81.0704607,6.43478261 Z M81.0704607,15.3043478 L81.0704607,11.3043478 L82.5826558,11.3043478 L85.0189702,16.173913 L86.699187,16.173913 L85.9430894,15.3043478 L83.6747967,11.0434783 C84.7669377,10.6956522 85.6070461,9.56521739 85.6070461,8.60869565 C85.6070461,6.86956522 84.0108401,5.73913043 82.3306233,5.73913043 L79.2222222,5.73913043 L79.9783198,6.60869565 L79.9783198,15.3913043 L79.2222222,16.2608696 L81.9105691,16.2608696 L81.0704607,15.3043478 Z M76.5338753,16.0869565 L76.5338753,14.173913 L75.4417344,15.3043478 L72.4173442,15.3043478 L72.4173442,10.9565217 L74.6856369,10.9565217 L75.5257453,11.826087 L75.5257453,9.39130435 L74.6856369,10.2608696 L72.4173442,10.2608696 L72.4173442,6.43478261 L75.4417344,6.43478261 L76.5338753,7.56521739 L76.5338753,5.65217391 L70.4850949,5.65217391 L71.2411924,6.52173913 L71.2411924,15.3043478 L70.4850949,16.173913 L76.5338753,16.173913 L76.5338753,16.0869565 Z M63.4281843,5.65217391 L60.5718157,5.65217391 L61.4119241,6.52173913 L64.2682927,16.0869565 L64.6883469,16.0869565 L67.6287263,6.52173913 L68.4688347,5.65217391 L66.0325203,5.65217391 L66.7886179,6.43478261 L64.6883469,13.7391304 L62.5880759,6.52173913 L63.4281843,5.65217391 Z M55.5311653,5.65217391 L56.3712737,6.52173913 L56.3712737,15.3043478 L55.5311653,16.173913 L58.2195122,16.173913 L57.3794038,15.3043478 L57.3794038,6.52173913 L58.2195122,5.65217391 L55.5311653,5.65217391 Z M46.1219512,15.2173913 L46.1219512,7.39130435 L51.5826558,16.0869565 L51.9186992,16.0869565 L51.9186992,6.52173913 L52.7588076,5.65217391 L50.1544715,5.65217391 L50.9945799,6.52173913 L50.9945799,13.1304348 L46.4579946,5.56521739 L44.3577236,5.56521739 L45.197832,6.43478261 L45.197832,15.0434783 L44.3577236,15.9130435 L47.0460705,15.9130435 L46.1219512,15.2173913 Z M34.7804878,13.3043478 C34.7804878,15.0434783 36.2086721,16.3478261 37.8888889,16.3478261 C39.5691057,16.3478261 41.1653117,15.1304348 41.1653117,13.3043478 L41.1653117,6.60869565 L42.0054201,5.73913043 L39.401084,5.73913043 L40.2411924,6.60869565 L40.2411924,13.3913043 C40.2411924,14.6086957 39.3170732,15.5652174 38.1409214,15.5652174 C36.9647696,15.5652174 35.8726287,14.6086957 35.8726287,13.3913043 L35.8726287,6.60869565 L36.7127371,5.73913043 L33.7723577,5.73913043 L34.6124661,6.60869565 L34.6124661,13.3043478 L34.7804878,13.3043478 Z" id="Shape"></path>
                <polygon id="Shape" points="0 0 0 3.47826087 2.100271 3.47826087 5.88075881 19.1304348 11.1734417 19.1304348 13.6937669 9.30434783 16.0460705 19.1304348 21.3387534 19.1304348 25.2872629 3.47826087 27.303523 3.47826087 27.303523 0 20.0785908 0 20.0785908 3.47826087 22.5149051 3.47826087 19.9105691 13.6521739 16.6341463 0 13.2737127 0 9.74525745 13.7391304 7.22493225 3.47826087 9.82926829 3.47826087 9.82926829 0"></polygon>
            </g>
        </g>
    </g>
</svg>